<svg width="417" height="170" viewBox="0 0 417 170" fill="none" xmlns="http://www.w3.org/2000/svg">
<path d="M114.629 158.384C114.759 156.797 113.578 155.406 111.991 155.276C110.405 155.146 109.013 156.326 108.883 157.913L111.756 158.148L114.629 158.384ZM101.34 166.988L101.105 169.861L101.106 169.861L101.34 166.988ZM92.6906 157.445L95.5633 157.681L95.5722 157.572L95.5729 157.464L92.6906 157.445ZM111.756 158.148L108.883 157.913C108.736 159.704 107.884 161.364 106.513 162.527L108.379 164.725L110.244 166.923C112.78 164.77 114.357 161.699 114.629 158.384L111.756 158.148ZM108.379 164.725L106.513 162.527C105.143 163.69 103.367 164.262 101.575 164.115L101.34 166.988L101.106 169.861C104.421 170.132 107.708 169.075 110.244 166.923L108.379 164.725ZM101.34 166.988L101.576 164.115C99.5352 163.948 97.9665 163.156 96.9667 162.083C95.9904 161.035 95.4086 159.566 95.5633 157.681L92.6906 157.445L89.8179 157.209C89.5362 160.642 90.6202 163.727 92.7484 166.012C94.8529 168.271 97.8273 169.592 101.105 169.861L101.34 166.988ZM92.6906 157.445L95.5729 157.464L96.1941 61.064L93.3117 61.0454L90.4294 61.0268L89.8083 157.426L92.6906 157.445Z" fill="#07003A"/>
<path d="M131.739 18.6909L114.141 6.61084H119.062L135.765 11.5323L149.933 18.6909L162.61 28.9813L176.927 46.1319L183.191 65.8179V68.6515C182.395 68.6515 180.715 68.5322 180.357 68.0549C179.999 67.5777 177.026 65.0722 175.585 63.8791H164.996L157.39 69.248L154.855 70.7394L153.662 68.6515L151.723 52.9922L144.564 35.3941L131.739 18.6909Z" fill="#F6D16E"/>
<path d="M54.6707 18.8398L72.3828 6.75977H67.4294L50.6179 11.6813L36.3582 18.8398L23.5995 29.1302L9.18965 46.2808L2.88535 65.9668V68.8004C3.68589 68.8004 5.37704 68.6811 5.73729 68.2039C6.09753 67.7266 9.08958 65.2211 10.5406 64.0281H21.1979L28.8531 69.397L31.4048 70.8883L32.6056 68.8004L34.557 53.1411L41.7619 35.543L54.6707 18.8398Z" fill="#F6D16E"/>
<path d="M114.588 25.8494L102.508 5.56689H109.666L119.957 10.7867L134.125 21.9719L145.012 37.0346L153.214 64.774L150.977 68.9498L145.012 64.774L137.704 63.4317L130.695 66.1162L123.238 71.0377L121.746 55.2292L119.957 41.807L114.588 25.8494Z" fill="#F6D16E"/>
<path d="M69.5197 25.8956L81.0312 5.56689H74.2096L64.4034 10.7986L50.9022 22.0092L40.5276 37.1063L32.7111 64.9088L34.8429 69.0942L40.5276 64.9088L47.4914 63.5635L54.1709 66.2541L61.2768 71.1868L62.698 55.3424L64.4034 41.8895L69.5197 25.8956Z" fill="#F6D16E"/>
<path d="M94.6016 69.397V4.67188L103.102 7.80373L111.454 17.4976L118.314 34.35L121.744 68.353L107.726 62.5367L94.6016 69.397Z" fill="#F6D16E"/>
<path d="M93.2578 69.397V4.67188L83.7295 7.80373L74.3683 17.4976L66.6788 34.35L62.834 68.353L78.5474 62.5367L93.2578 69.397Z" fill="#F6D16E"/>
<path d="M0.00075841 75.0735L0.0100696 77.9559L5.77479 77.9373L5.76548 75.0549L2.88312 75.0642L0.00075841 75.0735ZM180.754 74.5079C180.759 76.0997 182.053 77.386 183.645 77.3809C185.237 77.3758 186.523 76.0811 186.518 74.4892L183.636 74.4985L180.754 74.5079ZM2.88312 75.0642L5.76548 75.0549C5.64422 37.5175 44.067 5.91888 93.0351 5.76526L93.026 2.8829L93.017 0.000535488C42.1649 0.160066 -0.134536 33.1918 0.00075841 75.0735L2.88312 75.0642ZM93.026 2.8829L93.0351 5.76526C142.003 5.61163 180.632 36.9701 180.754 74.5079L183.636 74.4985L186.518 74.4892C186.383 32.6078 143.869 -0.158995 93.017 0.000535488L93.026 2.8829Z" fill="#07003A"/>
<path d="M29.829 72.3893L29.8386 75.2717L35.6033 75.2526L35.5937 72.3702L32.7114 72.3798L29.829 72.3893ZM92.9708 5.76468C94.5627 5.7598 95.8492 4.46537 95.8443 2.87348C95.8394 1.2816 94.545 -0.00491905 92.9531 -3.62396e-05L92.962 2.88232L92.9708 5.76468ZM32.7114 72.3798L35.5937 72.3702C35.4697 34.9711 61.5102 5.86119 92.9708 5.76468L92.962 2.88232L92.9531 -3.62396e-05C57.6121 0.108367 29.6969 32.5496 29.829 72.3893L32.7114 72.3798Z" fill="#07003A"/>
<path d="M60.2515 72.6879L60.2612 75.5702L66.0259 75.5509L66.0162 72.6685L63.1339 72.6782L60.2515 72.6879ZM93.2673 6.36136C94.8591 6.35643 96.1456 5.06196 96.1407 3.47008C96.1357 1.87819 94.8413 0.591713 93.2494 0.596644L93.2583 3.479L93.2673 6.36136ZM63.1339 72.6782L66.0162 72.6685C65.9527 53.7629 68.7549 36.8883 73.7583 24.8474C78.8372 12.625 85.6919 6.38483 93.2673 6.36136L93.2583 3.479L93.2494 0.596644C82.0214 0.631423 73.7496 9.84542 68.4349 22.6353C63.0448 35.6067 60.1864 53.3026 60.2515 72.6879L63.1339 72.6782Z" fill="#07003A"/>
<path d="M90.0786 71.485V74.3674H95.8433V71.485H92.9609H90.0786ZM95.8433 3.18066C95.8433 1.58877 94.5528 0.29829 92.9609 0.29829C91.369 0.29829 90.0786 1.58877 90.0786 3.18066H92.9609H95.8433ZM92.9609 71.485H95.8433C95.8433 71.4113 95.8433 71.3377 95.8433 71.264C95.8433 71.1904 95.8433 71.1167 95.8433 71.0432C95.8433 70.9696 95.8433 70.896 95.8433 70.8225C95.8433 70.7489 95.8433 70.6754 95.8433 70.602C95.8433 70.5285 95.8433 70.455 95.8433 70.3816C95.8433 70.3082 95.8433 70.2348 95.8433 70.1614C95.8433 70.0881 95.8433 70.0147 95.8433 69.9414C95.8433 69.8681 95.8433 69.7948 95.8433 69.7216C95.8433 69.6483 95.8433 69.5751 95.8433 69.5019C95.8433 69.4287 95.8433 69.3555 95.8433 69.2824C95.8433 69.2093 95.8433 69.1362 95.8433 69.0631C95.8433 68.99 95.8433 68.9169 95.8433 68.8439C95.8433 68.7709 95.8433 68.6979 95.8433 68.625C95.8433 68.552 95.8433 68.4791 95.8433 68.4062C95.8433 68.3333 95.8433 68.2604 95.8433 68.1876C95.8433 68.1147 95.8433 68.0419 95.8433 67.9691C95.8433 67.8963 95.8433 67.8236 95.8433 67.7509C95.8433 67.6782 95.8433 67.6055 95.8433 67.5328C95.8433 67.4601 95.8433 67.3875 95.8433 67.3149C95.8433 67.2423 95.8433 67.1697 95.8433 67.0972C95.8433 67.0247 95.8433 66.9522 95.8433 66.8797C95.8433 66.8072 95.8433 66.7348 95.8433 66.6624C95.8433 66.5899 95.8433 66.5176 95.8433 66.4452C95.8433 66.3729 95.8433 66.3005 95.8433 66.2283C95.8433 66.156 95.8433 66.0837 95.8433 66.0115C95.8433 65.9393 95.8433 65.8671 95.8433 65.7949C95.8433 65.7227 95.8433 65.6506 95.8433 65.5785C95.8433 65.5064 95.8433 65.4344 95.8433 65.3623C95.8433 65.2903 95.8433 65.2183 95.8433 65.1463C95.8433 65.0744 95.8433 65.0024 95.8433 64.9305C95.8433 64.8586 95.8433 64.7867 95.8433 64.7149C95.8433 64.6431 95.8433 64.5713 95.8433 64.4995C95.8433 64.4277 95.8433 64.356 95.8433 64.2843C95.8433 64.2126 95.8433 64.1409 95.8433 64.0692C95.8433 63.9976 95.8433 63.926 95.8433 63.8544C95.8433 63.7829 95.8433 63.7113 95.8433 63.6398C95.8433 63.5683 95.8433 63.4968 95.8433 63.4254C95.8433 63.354 95.8433 63.2825 95.8433 63.2112C95.8433 63.1398 95.8433 63.0685 95.8433 62.9972C95.8433 62.9259 95.8433 62.8546 95.8433 62.7834C95.8433 62.7121 95.8433 62.6409 95.8433 62.5698C95.8433 62.4986 95.8433 62.4275 95.8433 62.3564C95.8433 62.2853 95.8433 62.2142 95.8433 62.1432C95.8433 62.0721 95.8433 62.0012 95.8433 61.9302C95.8433 61.8592 95.8433 61.7883 95.8433 61.7174C95.8433 61.6465 95.8433 61.5757 95.8433 61.5049C95.8433 61.4341 95.8433 61.3633 95.8433 61.2925C95.8433 61.2218 95.8433 61.1511 95.8433 61.0804C95.8433 61.0097 95.8433 60.9391 95.8433 60.8685C95.8433 60.7979 95.8433 60.7273 95.8433 60.6568C95.8433 60.5862 95.8433 60.5158 95.8433 60.4453C95.8433 60.3748 95.8433 60.3044 95.8433 60.234C95.8433 60.1636 95.8433 60.0933 95.8433 60.023C95.8433 59.9527 95.8433 59.8824 95.8433 59.8121C95.8433 59.7419 95.8433 59.6717 95.8433 59.6015C95.8433 59.5314 95.8433 59.4612 95.8433 59.3911C95.8433 59.3211 95.8433 59.251 95.8433 59.181C95.8433 59.111 95.8433 59.041 95.8433 58.971C95.8433 58.9011 95.8433 58.8312 95.8433 58.7613C95.8433 58.6915 95.8433 58.6216 95.8433 58.5518C95.8433 58.482 95.8433 58.4123 95.8433 58.3426C95.8433 58.2729 95.8433 58.2032 95.8433 58.1335C95.8433 58.0639 95.8433 57.9943 95.8433 57.9247C95.8433 57.8552 95.8433 57.7856 95.8433 57.7161C95.8433 57.6467 95.8433 57.5772 95.8433 57.5078C95.8433 57.4384 95.8433 57.369 95.8433 57.2997C95.8433 57.2304 95.8433 57.1611 95.8433 57.0918C95.8433 57.0225 95.8433 56.9533 95.8433 56.8842C95.8433 56.815 95.8433 56.7458 95.8433 56.6767C95.8433 56.6076 95.8433 56.5386 95.8433 56.4696C95.8433 56.4005 95.8433 56.3316 95.8433 56.2626C95.8433 56.1937 95.8433 56.1248 95.8433 56.0559C95.8433 55.9871 95.8433 55.9182 95.8433 55.8495C95.8433 55.7807 95.8433 55.7119 95.8433 55.6432C95.8433 55.5745 95.8433 55.5059 95.8433 55.4373C95.8433 55.3686 95.8433 55.3001 95.8433 55.2315C95.8433 55.163 95.8433 55.0945 95.8433 55.026C95.8433 54.9576 95.8433 54.8892 95.8433 54.8208C95.8433 54.7524 95.8433 54.6841 95.8433 54.6158C95.8433 54.5475 95.8433 54.4792 95.8433 54.411C95.8433 54.3428 95.8433 54.2746 95.8433 54.2065C95.8433 54.1384 95.8433 54.0703 95.8433 54.0022C95.8433 53.9342 95.8433 53.8662 95.8433 53.7982C95.8433 53.7303 95.8433 53.6624 95.8433 53.5945C95.8433 53.5266 95.8433 53.4588 95.8433 53.391C95.8433 53.3232 95.8433 53.2554 95.8433 53.1877C95.8433 53.12 95.8433 53.0523 95.8433 52.9847C95.8433 52.9171 95.8433 52.8495 95.8433 52.782C95.8433 52.7144 95.8433 52.6469 95.8433 52.5795C95.8433 52.512 95.8433 52.4446 95.8433 52.3772C95.8433 52.3099 95.8433 52.2425 95.8433 52.1753C95.8433 52.108 95.8433 52.0407 95.8433 51.9735C95.8433 51.9064 95.8433 51.8392 95.8433 51.7721C95.8433 51.705 95.8433 51.6379 95.8433 51.5709C95.8433 51.5039 95.8433 51.4369 95.8433 51.37C95.8433 51.303 95.8433 51.2361 95.8433 51.1693C95.8433 51.1025 95.8433 51.0357 95.8433 50.9689C95.8433 50.9021 95.8433 50.8354 95.8433 50.7688C95.8433 50.7021 95.8433 50.6355 95.8433 50.5689C95.8433 50.5023 95.8433 50.4358 95.8433 50.3693C95.8433 50.3028 95.8433 50.2363 95.8433 50.1699C95.8433 50.1035 95.8433 50.0372 95.8433 49.9709C95.8433 49.9046 95.8433 49.8383 95.8433 49.7721C95.8433 49.7059 95.8433 49.6397 95.8433 49.5736C95.8433 49.5074 95.8433 49.4413 95.8433 49.3753C95.8433 49.3093 95.8433 49.2433 95.8433 49.1773C95.8433 49.1114 95.8433 49.0455 95.8433 48.9796C95.8433 48.9138 95.8433 48.848 95.8433 48.7822C95.8433 48.7164 95.8433 48.6507 95.8433 48.585C95.8433 48.5194 95.8433 48.4538 95.8433 48.3882C95.8433 48.3226 95.8433 48.2571 95.8433 48.1916C95.8433 48.1261 95.8433 48.0607 95.8433 47.9953C95.8433 47.9299 95.8433 47.8645 95.8433 47.7992C95.8433 47.7339 95.8433 47.6687 95.8433 47.6035C95.8433 47.5383 95.8433 47.4731 95.8433 47.408C95.8433 47.3429 95.8433 47.2779 95.8433 47.2128C95.8433 47.1478 95.8433 47.0829 95.8433 47.0179C95.8433 46.953 95.8433 46.8882 95.8433 46.8233C95.8433 46.7585 95.8433 46.6937 95.8433 46.629C95.8433 46.5643 95.8433 46.4996 95.8433 46.435C95.8433 46.3704 95.8433 46.3058 95.8433 46.2412C95.8433 46.1767 95.8433 46.1122 95.8433 46.0478C95.8433 45.9833 95.8433 45.919 95.8433 45.8546C95.8433 45.7903 95.8433 45.726 95.8433 45.6618C95.8433 45.5975 95.8433 45.5333 95.8433 45.4692C95.8433 45.405 95.8433 45.3409 95.8433 45.2769C95.8433 45.2129 95.8433 45.1489 95.8433 45.0849C95.8433 45.021 95.8433 44.9571 95.8433 44.8932C95.8433 44.8294 95.8433 44.7656 95.8433 44.7018C95.8433 44.6381 95.8433 44.5744 95.8433 44.5107C95.8433 44.4471 95.8433 44.3835 95.8433 44.32C95.8433 44.2564 95.8433 44.1929 95.8433 44.1295C95.8433 44.066 95.8433 44.0026 95.8433 43.9393C95.8433 43.8759 95.8433 43.8126 95.8433 43.7494C95.8433 43.6861 95.8433 43.623 95.8433 43.5598C95.8433 43.4967 95.8433 43.4336 95.8433 43.3705C95.8433 43.3075 95.8433 43.2445 95.8433 43.1816C95.8433 43.1186 95.8433 43.0557 95.8433 42.9929C95.8433 42.9301 95.8433 42.8673 95.8433 42.8046C95.8433 42.7418 95.8433 42.6791 95.8433 42.6165C95.8433 42.5539 95.8433 42.4913 95.8433 42.4288C95.8433 42.3662 95.8433 42.3038 95.8433 42.2414C95.8433 42.1789 95.8433 42.1166 95.8433 42.0542C95.8433 41.9919 95.8433 41.9297 95.8433 41.8674C95.8433 41.8052 95.8433 41.7431 95.8433 41.681C95.8433 41.6189 95.8433 41.5568 95.8433 41.4948C95.8433 41.4328 95.8433 41.3708 95.8433 41.309C95.8433 41.2471 95.8433 41.1852 95.8433 41.1234C95.8433 41.0616 95.8433 40.9999 95.8433 40.9382C95.8433 40.8765 95.8433 40.8149 95.8433 40.7533C95.8433 40.6917 95.8433 40.6302 95.8433 40.5687C95.8433 40.5073 95.8433 40.4459 95.8433 40.3845C95.8433 40.3231 95.8433 40.2618 95.8433 40.2006C95.8433 40.1393 95.8433 40.0781 95.8433 40.017C95.8433 39.9558 95.8433 39.8947 95.8433 39.8337C95.8433 39.7727 95.8433 39.7117 95.8433 39.6507C95.8433 39.5898 95.8433 39.5289 95.8433 39.4681C95.8433 39.4073 95.8433 39.3465 95.8433 39.2858C95.8433 39.2251 95.8433 39.1645 95.8433 39.1039C95.8433 39.0433 95.8433 38.9827 95.8433 38.9222C95.8433 38.8617 95.8433 38.8013 95.8433 38.7409C95.8433 38.6805 95.8433 38.6202 95.8433 38.5599C95.8433 38.4997 95.8433 38.4395 95.8433 38.3793C95.8433 38.3191 95.8433 38.259 95.8433 38.199C95.8433 38.139 95.8433 38.079 95.8433 38.019C95.8433 37.9591 95.8433 37.8992 95.8433 37.8394C95.8433 37.7796 95.8433 37.7198 95.8433 37.6601C95.8433 37.6004 95.8433 37.5407 95.8433 37.4811C95.8433 37.4216 95.8433 37.362 95.8433 37.3025C95.8433 37.243 95.8433 37.1836 95.8433 37.1243C95.8433 37.0649 95.8433 37.0056 95.8433 36.9463C95.8433 36.8871 95.8433 36.8279 95.8433 36.7687C95.8433 36.7096 95.8433 36.6505 95.8433 36.5915C95.8433 36.5325 95.8433 36.4735 95.8433 36.4146C95.8433 36.3557 95.8433 36.2968 95.8433 36.238C95.8433 36.1792 95.8433 36.1205 95.8433 36.0618C95.8433 36.0031 95.8433 35.9445 95.8433 35.886C95.8433 35.8274 95.8433 35.7689 95.8433 35.7105C95.8433 35.652 95.8433 35.5936 95.8433 35.5353C95.8433 35.477 95.8433 35.4187 95.8433 35.3605C95.8433 35.3023 95.8433 35.2441 95.8433 35.186C95.8433 35.1279 95.8433 35.0699 95.8433 35.0119C95.8433 34.9539 95.8433 34.896 95.8433 34.8382C95.8433 34.7803 95.8433 34.7225 95.8433 34.6648C95.8433 34.607 95.8433 34.5494 95.8433 34.4917C95.8433 34.4341 95.8433 34.3766 95.8433 34.3191C95.8433 34.2616 95.8433 34.2041 95.8433 34.1467C95.8433 34.0894 95.8433 34.032 95.8433 33.9748C95.8433 33.9175 95.8433 33.8603 95.8433 33.8032C95.8433 33.746 95.8433 33.689 95.8433 33.6319C95.8433 33.5749 95.8433 33.518 95.8433 33.4611C95.8433 33.4042 95.8433 33.3473 95.8433 33.2906C95.8433 33.2338 95.8433 33.1771 95.8433 33.1204C95.8433 33.0638 95.8433 33.0072 95.8433 32.9506C95.8433 32.8941 95.8433 32.8376 95.8433 32.7812C95.8433 32.7248 95.8433 32.6685 95.8433 32.6122C95.8433 32.5559 95.8433 32.4997 95.8433 32.4435C95.8433 32.3873 95.8433 32.3312 95.8433 32.2752C95.8433 32.2191 95.8433 32.1632 95.8433 32.1072C95.8433 32.0513 95.8433 31.9955 95.8433 31.9397C95.8433 31.8839 95.8433 31.8282 95.8433 31.7725C95.8433 31.7168 95.8433 31.6612 95.8433 31.6057C95.8433 31.5501 95.8433 31.4946 95.8433 31.4392C95.8433 31.3838 95.8433 31.3285 95.8433 31.2732C95.8433 31.2179 95.8433 31.1626 95.8433 31.1075C95.8433 31.0523 95.8433 30.9972 95.8433 30.9422C95.8433 30.8871 95.8433 30.8322 95.8433 30.7772C95.8433 30.7223 95.8433 30.6675 95.8433 30.6127C95.8433 30.5579 95.8433 30.5032 95.8433 30.4485C95.8433 30.3939 95.8433 30.3393 95.8433 30.2847C95.8433 30.2302 95.8433 30.1757 95.8433 30.1213C95.8433 30.0669 95.8433 30.0126 95.8433 29.9583C95.8433 29.904 95.8433 29.8498 95.8433 29.7957C95.8433 29.7415 95.8433 29.6875 95.8433 29.6334C95.8433 29.5794 95.8433 29.5255 95.8433 29.4716C95.8433 29.4177 95.8433 29.3639 95.8433 29.3101C95.8433 29.2564 95.8433 29.2027 95.8433 29.149C95.8433 29.0954 95.8433 29.0419 95.8433 28.9884C95.8433 28.9349 95.8433 28.8814 95.8433 28.8281C95.8433 28.7747 95.8433 28.7214 95.8433 28.6682C95.8433 28.6149 95.8433 28.5618 95.8433 28.5087C95.8433 28.4556 95.8433 28.4025 95.8433 28.3496C95.8433 28.2966 95.8433 28.2437 95.8433 28.1908C95.8433 28.138 95.8433 28.0852 95.8433 28.0325C95.8433 27.9798 95.8433 27.9272 95.8433 27.8746C95.8433 27.822 95.8433 27.7695 95.8433 27.7171C95.8433 27.6646 95.8433 27.6123 95.8433 27.56C95.8433 27.5077 95.8433 27.4554 95.8433 27.4032C95.8433 27.3511 95.8433 27.299 95.8433 27.2469C95.8433 27.1949 95.8433 27.1429 95.8433 27.091C95.8433 27.0391 95.8433 26.9873 95.8433 26.9355C95.8433 26.8837 95.8433 26.832 95.8433 26.7804C95.8433 26.7288 95.8433 26.6772 95.8433 26.6257C95.8433 26.5742 95.8433 26.5228 95.8433 26.4714C95.8433 26.4201 95.8433 26.3688 95.8433 26.3176C95.8433 26.2663 95.8433 26.2152 95.8433 26.1641C95.8433 26.113 95.8433 26.062 95.8433 26.011C95.8433 25.9601 95.8433 25.9092 95.8433 25.8584C95.8433 25.8076 95.8433 25.7568 95.8433 25.7062C95.8433 25.6555 95.8433 25.6049 95.8433 25.5543C95.8433 25.5038 95.8433 25.4533 95.8433 25.4029C95.8433 25.3525 95.8433 25.3022 95.8433 25.2519C95.8433 25.2017 95.8433 25.1515 95.8433 25.1014C95.8433 25.0513 95.8433 25.0012 95.8433 24.9512C95.8433 24.9012 95.8433 24.8513 95.8433 24.8015C95.8433 24.7516 95.8433 24.7019 95.8433 24.6522C95.8433 24.6025 95.8433 24.5528 95.8433 24.5033C95.8433 24.4537 95.8433 24.4042 95.8433 24.3548C95.8433 24.3054 95.8433 24.2561 95.8433 24.2068C95.8433 24.1575 95.8433 24.1083 95.8433 24.0592C95.8433 24.01 95.8433 23.961 95.8433 23.912C95.8433 23.863 95.8433 23.814 95.8433 23.7652C95.8433 23.7163 95.8433 23.6676 95.8433 23.6189C95.8433 23.5701 95.8433 23.5215 95.8433 23.4729C95.8433 23.4244 95.8433 23.3759 95.8433 23.3275C95.8433 23.279 95.8433 23.2307 95.8433 23.1824C95.8433 23.1341 95.8433 23.0859 95.8433 23.0378C95.8433 22.9897 95.8433 22.9416 95.8433 22.8936C95.8433 22.8456 95.8433 22.7977 95.8433 22.7498C95.8433 22.702 95.8433 22.6542 95.8433 22.6065C95.8433 22.5588 95.8433 22.5112 95.8433 22.4636C95.8433 22.4161 95.8433 22.3686 95.8433 22.3212C95.8433 22.2738 95.8433 22.2265 95.8433 22.1792C95.8433 22.1319 95.8433 22.0847 95.8433 22.0376C95.8433 21.9905 95.8433 21.9435 95.8433 21.8965C95.8433 21.8495 95.8433 21.8026 95.8433 21.7558C95.8433 21.709 95.8433 21.6623 95.8433 21.6156C95.8433 21.5689 95.8433 21.5223 95.8433 21.4758C95.8433 21.4293 95.8433 21.3828 95.8433 21.3364C95.8433 21.29 95.8433 21.2437 95.8433 21.1975C95.8433 21.1513 95.8433 21.1051 95.8433 21.059C95.8433 21.013 95.8433 20.967 95.8433 20.921C95.8433 20.8751 95.8433 20.8292 95.8433 20.7835C95.8433 20.7377 95.8433 20.692 95.8433 20.6463C95.8433 20.6007 95.8433 20.5552 95.8433 20.5097C95.8433 20.4642 95.8433 20.4188 95.8433 20.3735C95.8433 20.3281 95.8433 20.2829 95.8433 20.2377C95.8433 20.1925 95.8433 20.1474 95.8433 20.1024C95.8433 20.0574 95.8433 20.0124 95.8433 19.9675C95.8433 19.9227 95.8433 19.8779 95.8433 19.8331C95.8433 19.7884 95.8433 19.7438 95.8433 19.6992C95.8433 19.6546 95.8433 19.6101 95.8433 19.5657C95.8433 19.5213 95.8433 19.477 95.8433 19.4327C95.8433 19.3884 95.8433 19.3442 95.8433 19.3001C95.8433 19.256 95.8433 19.212 95.8433 19.168C95.8433 19.1241 95.8433 19.0802 95.8433 19.0364C95.8433 18.9926 95.8433 18.9489 95.8433 18.9052C95.8433 18.8616 95.8433 18.818 95.8433 18.7745C95.8433 18.731 95.8433 18.6876 95.8433 18.6442C95.8433 18.6009 95.8433 18.5576 95.8433 18.5145C95.8433 18.4713 95.8433 18.4282 95.8433 18.3851C95.8433 18.3421 95.8433 18.2992 95.8433 18.2563C95.8433 18.2134 95.8433 18.1706 95.8433 18.1279C95.8433 18.0852 95.8433 18.0426 95.8433 18C95.8433 17.9575 95.8433 17.915 95.8433 17.8726C95.8433 17.8302 95.8433 17.7879 95.8433 17.7456C95.8433 17.7034 95.8433 17.6612 95.8433 17.6191C95.8433 17.5771 95.8433 17.535 95.8433 17.4931C95.8433 17.4512 95.8433 17.4094 95.8433 17.3676C95.8433 17.3258 95.8433 17.2841 95.8433 17.2425C95.8433 17.2009 95.8433 17.1594 95.8433 17.1179C95.8433 17.0765 95.8433 17.0351 95.8433 16.9938C95.8433 16.9526 95.8433 16.9113 95.8433 16.8702C95.8433 16.8291 95.8433 16.788 95.8433 16.7471C95.8433 16.7061 95.8433 16.6652 95.8433 16.6244C95.8433 16.5836 95.8433 16.5429 95.8433 16.5022C95.8433 16.4616 95.8433 16.421 95.8433 16.3805C95.8433 16.3401 95.8433 16.2997 95.8433 16.2593C95.8433 16.219 95.8433 16.1788 95.8433 16.1386C95.8433 16.0985 95.8433 16.0584 95.8433 16.0184C95.8433 15.9784 95.8433 15.9385 95.8433 15.8986C95.8433 15.8588 95.8433 15.819 95.8433 15.7794C95.8433 15.7397 95.8433 15.7001 95.8433 15.6606C95.8433 15.6211 95.8433 15.5817 95.8433 15.5423C95.8433 15.503 95.8433 15.4637 95.8433 15.4246C95.8433 15.3854 95.8433 15.3463 95.8433 15.3073C95.8433 15.2682 95.8433 15.2293 95.8433 15.1905C95.8433 15.1516 95.8433 15.1129 95.8433 15.0742C95.8433 15.0355 95.8433 14.9969 95.8433 14.9584C95.8433 14.9198 95.8433 14.8814 95.8433 14.8431C95.8433 14.8047 95.8433 14.7664 95.8433 14.7283C95.8433 14.6901 95.8433 14.652 95.8433 14.614C95.8433 14.5759 95.8433 14.538 95.8433 14.5001C95.8433 14.4623 95.8433 14.4245 95.8433 14.3868C95.8433 14.3492 95.8433 14.3116 95.8433 14.274C95.8433 14.2365 95.8433 14.1991 95.8433 14.1617C95.8433 14.1244 95.8433 14.0871 95.8433 14.05C95.8433 14.0128 95.8433 13.9757 95.8433 13.9387C95.8433 13.9017 95.8433 13.8647 95.8433 13.8279C95.8433 13.7911 95.8433 13.7543 95.8433 13.7176C95.8433 13.681 95.8433 13.6444 95.8433 13.6079C95.8433 13.5714 95.8433 13.535 95.8433 13.4986C95.8433 13.4623 95.8433 13.426 95.8433 13.3899C95.8433 13.3537 95.8433 13.3176 95.8433 13.2817C95.8433 13.2457 95.8433 13.2098 95.8433 13.1739C95.8433 13.1381 95.8433 13.1024 95.8433 13.0667C95.8433 13.0311 95.8433 12.9955 95.8433 12.9601C95.8433 12.9246 95.8433 12.8892 95.8433 12.8539C95.8433 12.8186 95.8433 12.7834 95.8433 12.7483C95.8433 12.7131 95.8433 12.6781 95.8433 12.6431C95.8433 12.6082 95.8433 12.5733 95.8433 12.5385C95.8433 12.5037 95.8433 12.469 95.8433 12.4344C95.8433 12.3998 95.8433 12.3653 95.8433 12.3309C95.8433 12.2964 95.8433 12.2621 95.8433 12.2278C95.8433 12.1936 95.8433 12.1594 95.8433 12.1253C95.8433 12.0912 95.8433 12.0572 95.8433 12.0233C95.8433 11.9894 95.8433 11.9556 95.8433 11.9218C95.8433 11.8881 95.8433 11.8544 95.8433 11.8209C95.8433 11.7873 95.8433 11.7539 95.8433 11.7205C95.8433 11.6871 95.8433 11.6538 95.8433 11.6206C95.8433 11.5874 95.8433 11.5543 95.8433 11.5212C95.8433 11.4882 95.8433 11.4553 95.8433 11.4224C95.8433 11.3896 95.8433 11.3568 95.8433 11.3241C95.8433 11.2914 95.8433 11.2589 95.8433 11.2264C95.8433 11.1939 95.8433 11.1615 95.8433 11.1291C95.8433 11.0968 95.8433 11.0646 95.8433 11.0324C95.8433 11.0003 95.8433 10.9683 95.8433 10.9363C95.8433 10.9043 95.8433 10.8725 95.8433 10.8407C95.8433 10.8089 95.8433 10.7772 95.8433 10.7456C95.8433 10.714 95.8433 10.6825 95.8433 10.6511C95.8433 10.6196 95.8433 10.5883 95.8433 10.5571C95.8433 10.5258 95.8433 10.4947 95.8433 10.4636C95.8433 10.4326 95.8433 10.4016 95.8433 10.3707C95.8433 10.3398 95.8433 10.309 95.8433 10.2783C95.8433 10.2476 95.8433 10.217 95.8433 10.1865C95.8433 10.156 95.8433 10.1256 95.8433 10.0952C95.8433 10.0649 95.8433 10.0347 95.8433 10.0045C95.8433 9.97436 95.8433 9.9443 95.8433 9.91433C95.8433 9.88436 95.8433 9.85448 95.8433 9.8247C95.8433 9.79491 95.8433 9.76522 95.8433 9.73562C95.8433 9.70601 95.8433 9.6765 95.8433 9.64709C95.8433 9.61767 95.8433 9.58834 95.8433 9.55911C95.8433 9.52987 95.8433 9.50073 95.8433 9.47168C95.8433 9.44263 95.8433 9.41367 95.8433 9.38481C95.8433 9.35594 95.8433 9.32717 95.8433 9.29849C95.8433 9.26981 95.8433 9.24123 95.8433 9.21273C95.8433 9.18424 95.8433 9.15584 95.8433 9.12753C95.8433 9.09922 95.8433 9.07101 95.8433 9.04289C95.8433 9.01476 95.8433 8.98674 95.8433 8.9588C95.8433 8.93087 95.8433 8.90302 95.8433 8.87528C95.8433 8.84753 95.8433 8.81987 95.8433 8.79231C95.8433 8.76475 95.8433 8.73729 95.8433 8.70991C95.8433 8.68254 95.8433 8.65526 95.8433 8.62808C95.8433 8.60089 95.8433 8.5738 95.8433 8.54681C95.8433 8.51981 95.8433 8.49291 95.8433 8.4661C95.8433 8.43929 95.8433 8.41258 95.8433 8.38596C95.8433 8.35934 95.8433 8.33282 95.8433 8.30639C95.8433 8.27996 95.8433 8.25363 95.8433 8.22739C95.8433 8.20115 95.8433 8.175 95.8433 8.14896C95.8433 8.12291 95.8433 8.09695 95.8433 8.07109C95.8433 8.04524 95.8433 8.01947 95.8433 7.9938C95.8433 7.96814 95.8433 7.94256 95.8433 7.91709C95.8433 7.89161 95.8433 7.86623 95.8433 7.84095C95.8433 7.81566 95.8433 7.79047 95.8433 7.76538C95.8433 7.74029 95.8433 7.71529 95.8433 7.69039C95.8433 7.66549 95.8433 7.64068 95.8433 7.61598C95.8433 7.59127 95.8433 7.56666 95.8433 7.54214C95.8433 7.51763 95.8433 7.49321 95.8433 7.46888C95.8433 7.44456 95.8433 7.42034 95.8433 7.39621C95.8433 7.37208 95.8433 7.34805 95.8433 7.32412C95.8433 7.30018 95.8433 7.27634 95.8433 7.2526C95.8433 7.22886 95.8433 7.20522 95.8433 7.18168C95.8433 7.15813 95.8433 7.13468 95.8433 7.11133C95.8433 7.08798 95.8433 7.06473 95.8433 7.04158C95.8433 7.01842 95.8433 6.99536 95.8433 6.9724C95.8433 6.94945 95.8433 6.92658 95.8433 6.90382C95.8433 6.88106 95.8433 6.85839 95.8433 6.83583C95.8433 6.81326 95.8433 6.79079 95.8433 6.76842C95.8433 6.74605 95.8433 6.72378 95.8433 6.70161C95.8433 6.67944 95.8433 6.65736 95.8433 6.63539C95.8433 6.61341 95.8433 6.59154 95.8433 6.56976C95.8433 6.54798 95.8433 6.5263 95.8433 6.50472C95.8433 6.48314 95.8433 6.46166 95.8433 6.44028C95.8433 6.4189 95.8433 6.39762 95.8433 6.37644C95.8433 6.35526 95.8433 6.33418 95.8433 6.31319C95.8433 6.29221 95.8433 6.27133 95.8433 6.25055C95.8433 6.22976 95.8433 6.20908 95.8433 6.1885C95.8433 6.16791 95.8433 6.14743 95.8433 6.12705C95.8433 6.10667 95.8433 6.08638 95.8433 6.0662C95.8433 6.04602 95.8433 6.02594 95.8433 6.00596C95.8433 5.98598 95.8433 5.96609 95.8433 5.94631C95.8433 5.92653 95.8433 5.90686 95.8433 5.88728C95.8433 5.8677 95.8433 5.84822 95.8433 5.82885C95.8433 5.80947 95.8433 5.79019 95.8433 5.77102C95.8433 5.75185 95.8433 5.73277 95.8433 5.7138C95.8433 5.69483 95.8433 5.67596 95.8433 5.6572C95.8433 5.63843 95.8433 5.61976 95.8433 5.6012C95.8433 5.58263 95.8433 5.56417 95.8433 5.54581C95.8433 5.52745 95.8433 5.50919 95.8433 5.49103C95.8433 5.47287 95.8433 5.45482 95.8433 5.43687C95.8433 5.41892 95.8433 5.40107 95.8433 5.38332C95.8433 5.36557 95.8433 5.34793 95.8433 5.33038C95.8433 5.31284 95.8433 5.2954 95.8433 5.27806C95.8433 5.26073 95.8433 5.24349 95.8433 5.22636C95.8433 5.20923 95.8433 5.1922 95.8433 5.17528C95.8433 5.15835 95.8433 5.14153 95.8433 5.12481C95.8433 5.1081 95.8433 5.09148 95.8433 5.07497C95.8433 5.05846 95.8433 5.04205 95.8433 5.02575C95.8433 5.00944 95.8433 4.99324 95.8433 4.97715C95.8433 4.96105 95.8433 4.94506 95.8433 4.92917C95.8433 4.91328 95.8433 4.8975 95.8433 4.88182C95.8433 4.86614 95.8433 4.85056 95.8433 4.83509C95.8433 4.81962 95.8433 4.80425 95.8433 4.78899C95.8433 4.77372 95.8433 4.75857 95.8433 4.74351C95.8433 4.72846 95.8433 4.71351 95.8433 4.69867C95.8433 4.68382 95.8433 4.66908 95.8433 4.65445C95.8433 4.63982 95.8433 4.62529 95.8433 4.61087C95.8433 4.59644 95.8433 4.58213 95.8433 4.56791C95.8433 4.5537 95.8433 4.53959 95.8433 4.52559C95.8433 4.51159 95.8433 4.49769 95.8433 4.48391C95.8433 4.47012 95.8433 4.45643 95.8433 4.44285C95.8433 4.42927 95.8433 4.4158 95.8433 4.40244C95.8433 4.38907 95.8433 4.37581 95.8433 4.36266C95.8433 4.3495 95.8433 4.33646 95.8433 4.32352C95.8433 4.31058 95.8433 4.29774 95.8433 4.28501C95.8433 4.27229 95.8433 4.25967 95.8433 4.24715C95.8433 4.23464 95.8433 4.22223 95.8433 4.20993C95.8433 4.19763 95.8433 4.18544 95.8433 4.17335C95.8433 4.16127 95.8433 4.14929 95.8433 4.13741C95.8433 4.12554 95.8433 4.11378 95.8433 4.10212C95.8433 4.09047 95.8433 4.07892 95.8433 4.06748C95.8433 4.05604 95.8433 4.0447 95.8433 4.03348C95.8433 4.02225 95.8433 4.01113 95.8433 4.00012C95.8433 3.98911 95.8433 3.97821 95.8433 3.96742C95.8433 3.95663 95.8433 3.94594 95.8433 3.93537C95.8433 3.92479 95.8433 3.91432 95.8433 3.90396C95.8433 3.8936 95.8433 3.88335 95.8433 3.87321C95.8433 3.86307 95.8433 3.85303 95.8433 3.84311C95.8433 3.83318 95.8433 3.82337 95.8433 3.81366C95.8433 3.80396 95.8433 3.79436 95.8433 3.78487C95.8433 3.77538 95.8433 3.766 95.8433 3.75673C95.8433 3.74746 95.8433 3.7383 95.8433 3.72925C95.8433 3.7202 95.8433 3.71126 95.8433 3.70243C95.8433 3.6936 95.8433 3.68488 95.8433 3.67627C95.8433 3.66766 95.8433 3.65916 95.8433 3.65077C95.8433 3.64238 95.8433 3.6341 95.8433 3.62593C95.8433 3.61776 95.8433 3.6097 95.8433 3.60175C95.8433 3.5938 95.8433 3.58596 95.8433 3.57823C95.8433 3.5705 95.8433 3.56288 95.8433 3.55538C95.8433 3.54787 95.8433 3.54048 95.8433 3.53319C95.8433 3.52591 95.8433 3.51873 95.8433 3.51167C95.8433 3.50461 95.8433 3.49766 95.8433 3.49082C95.8433 3.48398 95.8433 3.47725 95.8433 3.47063C95.8433 3.46401 95.8433 3.45751 95.8433 3.45111C95.8433 3.44472 95.8433 3.43844 95.8433 3.43227C95.8433 3.4261 95.8433 3.42004 95.8433 3.41409C95.8433 3.40815 95.8433 3.40231 95.8433 3.39659C95.8433 3.39087 95.8433 3.38526 95.8433 3.37976C95.8433 3.37427 95.8433 3.36888 95.8433 3.36361C95.8433 3.35834 95.8433 3.35318 95.8433 3.34813C95.8433 3.34309 95.8433 3.33815 95.8433 3.33333C95.8433 3.32851 95.8433 3.3238 95.8433 3.31921C95.8433 3.31461 95.8433 3.31013 95.8433 3.30576C95.8433 3.30139 95.8433 3.29714 95.8433 3.293C95.8433 3.28885 95.8433 3.28483 95.8433 3.28091C95.8433 3.277 95.8433 3.2732 95.8433 3.26951C95.8433 3.26582 95.8433 3.26225 95.8433 3.25879C95.8433 3.25533 95.8433 3.25199 95.8433 3.24876C95.8433 3.24552 95.8433 3.24241 95.8433 3.2394C95.8433 3.2364 95.8433 3.23351 95.8433 3.23074C95.8433 3.22797 95.8433 3.22531 95.8433 3.22276C95.8433 3.22022 95.8433 3.21779 95.8433 3.21547C95.8433 3.21316 95.8433 3.21096 95.8433 3.20887C95.8433 3.20679 95.8433 3.20482 95.8433 3.20296C95.8433 3.20111 95.8433 3.19937 95.8433 3.19775C95.8433 3.19612 95.8433 3.19461 95.8433 3.19322C95.8433 3.19183 95.8433 3.19055 95.8433 3.18939C95.8433 3.18823 95.8433 3.18718 95.8433 3.18625C95.8433 3.18532 95.8433 3.18451 95.8433 3.18381C95.8433 3.18311 95.8433 3.18253 95.8433 3.18206C95.8433 3.1816 95.8433 3.18125 95.8433 3.18101C95.8433 3.18078 95.8433 3.18066 92.9609 3.18066C90.0786 3.18066 90.0786 3.18078 90.0786 3.18101C90.0786 3.18125 90.0786 3.1816 90.0786 3.18206C90.0786 3.18253 90.0786 3.18311 90.0786 3.18381C90.0786 3.18451 90.0786 3.18532 90.0786 3.18625C90.0786 3.18718 90.0786 3.18823 90.0786 3.18939C90.0786 3.19055 90.0786 3.19183 90.0786 3.19322C90.0786 3.19461 90.0786 3.19612 90.0786 3.19775C90.0786 3.19937 90.0786 3.20111 90.0786 3.20296C90.0786 3.20482 90.0786 3.20679 90.0786 3.20887C90.0786 3.21096 90.0786 3.21316 90.0786 3.21547C90.0786 3.21779 90.0786 3.22022 90.0786 3.22276C90.0786 3.22531 90.0786 3.22797 90.0786 3.23074C90.0786 3.23351 90.0786 3.2364 90.0786 3.2394C90.0786 3.24241 90.0786 3.24552 90.0786 3.24876C90.0786 3.25199 90.0786 3.25533 90.0786 3.25879C90.0786 3.26225 90.0786 3.26582 90.0786 3.26951C90.0786 3.2732 90.0786 3.277 90.0786 3.28091C90.0786 3.28483 90.0786 3.28885 90.0786 3.293C90.0786 3.29714 90.0786 3.30139 90.0786 3.30576C90.0786 3.31013 90.0786 3.31461 90.0786 3.31921C90.0786 3.3238 90.0786 3.32851 90.0786 3.33333C90.0786 3.33815 90.0786 3.34309 90.0786 3.34813C90.0786 3.35318 90.0786 3.35834 90.0786 3.36361C90.0786 3.36888 90.0786 3.37427 90.0786 3.37976C90.0786 3.38526 90.0786 3.39087 90.0786 3.39659C90.0786 3.40231 90.0786 3.40815 90.0786 3.41409C90.0786 3.42004 90.0786 3.4261 90.0786 3.43227C90.0786 3.43844 90.0786 3.44472 90.0786 3.45111C90.0786 3.45751 90.0786 3.46401 90.0786 3.47063C90.0786 3.47725 90.0786 3.48398 90.0786 3.49082C90.0786 3.49766 90.0786 3.50461 90.0786 3.51167C90.0786 3.51873 90.0786 3.52591 90.0786 3.53319C90.0786 3.54048 90.0786 3.54787 90.0786 3.55538C90.0786 3.56288 90.0786 3.5705 90.0786 3.57823C90.0786 3.58596 90.0786 3.5938 90.0786 3.60175C90.0786 3.6097 90.0786 3.61776 90.0786 3.62593C90.0786 3.6341 90.0786 3.64238 90.0786 3.65077C90.0786 3.65916 90.0786 3.66766 90.0786 3.67627C90.0786 3.68488 90.0786 3.6936 90.0786 3.70243C90.0786 3.71126 90.0786 3.7202 90.0786 3.72925C90.0786 3.7383 90.0786 3.74746 90.0786 3.75673C90.0786 3.766 90.0786 3.77538 90.0786 3.78487C90.0786 3.79436 90.0786 3.80396 90.0786 3.81366C90.0786 3.82337 90.0786 3.83318 90.0786 3.84311C90.0786 3.85303 90.0786 3.86307 90.0786 3.87321C90.0786 3.88335 90.0786 3.8936 90.0786 3.90396C90.0786 3.91432 90.0786 3.92479 90.0786 3.93537C90.0786 3.94594 90.0786 3.95663 90.0786 3.96742C90.0786 3.97821 90.0786 3.98911 90.0786 4.00012C90.0786 4.01113 90.0786 4.02225 90.0786 4.03348C90.0786 4.0447 90.0786 4.05604 90.0786 4.06748C90.0786 4.07892 90.0786 4.09047 90.0786 4.10212C90.0786 4.11378 90.0786 4.12554 90.0786 4.13741C90.0786 4.14929 90.0786 4.16127 90.0786 4.17335C90.0786 4.18544 90.0786 4.19763 90.0786 4.20993C90.0786 4.22223 90.0786 4.23464 90.0786 4.24715C90.0786 4.25967 90.0786 4.27229 90.0786 4.28501C90.0786 4.29774 90.0786 4.31058 90.0786 4.32352C90.0786 4.33646 90.0786 4.3495 90.0786 4.36266C90.0786 4.37581 90.0786 4.38907 90.0786 4.40244C90.0786 4.4158 90.0786 4.42927 90.0786 4.44285C90.0786 4.45643 90.0786 4.47012 90.0786 4.48391C90.0786 4.49769 90.0786 4.51159 90.0786 4.52559C90.0786 4.53959 90.0786 4.5537 90.0786 4.56791C90.0786 4.58213 90.0786 4.59644 90.0786 4.61087C90.0786 4.62529 90.0786 4.63982 90.0786 4.65445C90.0786 4.66908 90.0786 4.68382 90.0786 4.69867C90.0786 4.71351 90.0786 4.72846 90.0786 4.74351C90.0786 4.75857 90.0786 4.77372 90.0786 4.78899C90.0786 4.80425 90.0786 4.81962 90.0786 4.83509C90.0786 4.85056 90.0786 4.86614 90.0786 4.88182C90.0786 4.8975 90.0786 4.91328 90.0786 4.92917C90.0786 4.94506 90.0786 4.96105 90.0786 4.97715C90.0786 4.99324 90.0786 5.00944 90.0786 5.02575C90.0786 5.04205 90.0786 5.05846 90.0786 5.07497C90.0786 5.09148 90.0786 5.1081 90.0786 5.12481C90.0786 5.14153 90.0786 5.15835 90.0786 5.17528C90.0786 5.1922 90.0786 5.20923 90.0786 5.22636C90.0786 5.24349 90.0786 5.26073 90.0786 5.27806C90.0786 5.2954 90.0786 5.31284 90.0786 5.33038C90.0786 5.34793 90.0786 5.36557 90.0786 5.38332C90.0786 5.40107 90.0786 5.41892 90.0786 5.43687C90.0786 5.45482 90.0786 5.47287 90.0786 5.49103C90.0786 5.50919 90.0786 5.52745 90.0786 5.54581C90.0786 5.56417 90.0786 5.58263 90.0786 5.6012C90.0786 5.61976 90.0786 5.63843 90.0786 5.6572C90.0786 5.67596 90.0786 5.69483 90.0786 5.7138C90.0786 5.73277 90.0786 5.75185 90.0786 5.77102C90.0786 5.79019 90.0786 5.80947 90.0786 5.82885C90.0786 5.84822 90.0786 5.8677 90.0786 5.88728C90.0786 5.90686 90.0786 5.92653 90.0786 5.94631C90.0786 5.96609 90.0786 5.98598 90.0786 6.00596C90.0786 6.02594 90.0786 6.04602 90.0786 6.0662C90.0786 6.08638 90.0786 6.10667 90.0786 6.12705C90.0786 6.14743 90.0786 6.16791 90.0786 6.1885C90.0786 6.20908 90.0786 6.22976 90.0786 6.25055C90.0786 6.27133 90.0786 6.29221 90.0786 6.31319C90.0786 6.33418 90.0786 6.35526 90.0786 6.37644C90.0786 6.39762 90.0786 6.4189 90.0786 6.44028C90.0786 6.46166 90.0786 6.48314 90.0786 6.50472C90.0786 6.5263 90.0786 6.54798 90.0786 6.56976C90.0786 6.59154 90.0786 6.61341 90.0786 6.63539C90.0786 6.65736 90.0786 6.67944 90.0786 6.70161C90.0786 6.72378 90.0786 6.74605 90.0786 6.76842C90.0786 6.79079 90.0786 6.81326 90.0786 6.83583C90.0786 6.85839 90.0786 6.88106 90.0786 6.90382C90.0786 6.92658 90.0786 6.94945 90.0786 6.9724C90.0786 6.99536 90.0786 7.01842 90.0786 7.04158C90.0786 7.06473 90.0786 7.08798 90.0786 7.11133C90.0786 7.13468 90.0786 7.15813 90.0786 7.18168C90.0786 7.20522 90.0786 7.22886 90.0786 7.2526C90.0786 7.27634 90.0786 7.30018 90.0786 7.32412C90.0786 7.34805 90.0786 7.37208 90.0786 7.39621C90.0786 7.42034 90.0786 7.44456 90.0786 7.46888C90.0786 7.49321 90.0786 7.51763 90.0786 7.54214C90.0786 7.56666 90.0786 7.59127 90.0786 7.61598C90.0786 7.64068 90.0786 7.66549 90.0786 7.69039C90.0786 7.71529 90.0786 7.74029 90.0786 7.76538C90.0786 7.79047 90.0786 7.81566 90.0786 7.84095C90.0786 7.86623 90.0786 7.89161 90.0786 7.91709C90.0786 7.94256 90.0786 7.96814 90.0786 7.9938C90.0786 8.01947 90.0786 8.04524 90.0786 8.07109C90.0786 8.09695 90.0786 8.12291 90.0786 8.14896C90.0786 8.175 90.0786 8.20115 90.0786 8.22739C90.0786 8.25363 90.0786 8.27996 90.0786 8.30639C90.0786 8.33282 90.0786 8.35934 90.0786 8.38596C90.0786 8.41258 90.0786 8.43929 90.0786 8.4661C90.0786 8.49291 90.0786 8.51981 90.0786 8.54681C90.0786 8.5738 90.0786 8.60089 90.0786 8.62808C90.0786 8.65526 90.0786 8.68254 90.0786 8.70991C90.0786 8.73729 90.0786 8.76475 90.0786 8.79231C90.0786 8.81987 90.0786 8.84753 90.0786 8.87528C90.0786 8.90302 90.0786 8.93087 90.0786 8.9588C90.0786 8.98674 90.0786 9.01476 90.0786 9.04289C90.0786 9.07101 90.0786 9.09922 90.0786 9.12753C90.0786 9.15584 90.0786 9.18424 90.0786 9.21273C90.0786 9.24123 90.0786 9.26981 90.0786 9.29849C90.0786 9.32717 90.0786 9.35594 90.0786 9.38481C90.0786 9.41367 90.0786 9.44263 90.0786 9.47168C90.0786 9.50073 90.0786 9.52987 90.0786 9.55911C90.0786 9.58834 90.0786 9.61767 90.0786 9.64709C90.0786 9.6765 90.0786 9.70601 90.0786 9.73562C90.0786 9.76522 90.0786 9.79491 90.0786 9.8247C90.0786 9.85448 90.0786 9.88436 90.0786 9.91433C90.0786 9.9443 90.0786 9.97436 90.0786 10.0045C90.0786 10.0347 90.0786 10.0649 90.0786 10.0952C90.0786 10.1256 90.0786 10.156 90.0786 10.1865C90.0786 10.217 90.0786 10.2476 90.0786 10.2783C90.0786 10.309 90.0786 10.3398 90.0786 10.3707C90.0786 10.4016 90.0786 10.4326 90.0786 10.4636C90.0786 10.4947 90.0786 10.5258 90.0786 10.5571C90.0786 10.5883 90.0786 10.6196 90.0786 10.6511C90.0786 10.6825 90.0786 10.714 90.0786 10.7456C90.0786 10.7772 90.0786 10.8089 90.0786 10.8407C90.0786 10.8725 90.0786 10.9043 90.0786 10.9363C90.0786 10.9683 90.0786 11.0003 90.0786 11.0324C90.0786 11.0646 90.0786 11.0968 90.0786 11.1291C90.0786 11.1615 90.0786 11.1939 90.0786 11.2264C90.0786 11.2589 90.0786 11.2914 90.0786 11.3241C90.0786 11.3568 90.0786 11.3896 90.0786 11.4224C90.0786 11.4553 90.0786 11.4882 90.0786 11.5212C90.0786 11.5543 90.0786 11.5874 90.0786 11.6206C90.0786 11.6538 90.0786 11.6871 90.0786 11.7205C90.0786 11.7539 90.0786 11.7873 90.0786 11.8209C90.0786 11.8544 90.0786 11.8881 90.0786 11.9218C90.0786 11.9556 90.0786 11.9894 90.0786 12.0233C90.0786 12.0572 90.0786 12.0912 90.0786 12.1253C90.0786 12.1594 90.0786 12.1936 90.0786 12.2278C90.0786 12.2621 90.0786 12.2964 90.0786 12.3309C90.0786 12.3653 90.0786 12.3998 90.0786 12.4344C90.0786 12.469 90.0786 12.5037 90.0786 12.5385C90.0786 12.5733 90.0786 12.6082 90.0786 12.6431C90.0786 12.6781 90.0786 12.7131 90.0786 12.7483C90.0786 12.7834 90.0786 12.8186 90.0786 12.8539C90.0786 12.8892 90.0786 12.9246 90.0786 12.9601C90.0786 12.9955 90.0786 13.0311 90.0786 13.0667C90.0786 13.1024 90.0786 13.1381 90.0786 13.1739C90.0786 13.2098 90.0786 13.2457 90.0786 13.2817C90.0786 13.3176 90.0786 13.3537 90.0786 13.3899C90.0786 13.426 90.0786 13.4623 90.0786 13.4986C90.0786 13.535 90.0786 13.5714 90.0786 13.6079C90.0786 13.6444 90.0786 13.681 90.0786 13.7176C90.0786 13.7543 90.0786 13.7911 90.0786 13.8279C90.0786 13.8647 90.0786 13.9017 90.0786 13.9387C90.0786 13.9757 90.0786 14.0128 90.0786 14.05C90.0786 14.0871 90.0786 14.1244 90.0786 14.1617C90.0786 14.1991 90.0786 14.2365 90.0786 14.274C90.0786 14.3116 90.0786 14.3492 90.0786 14.3868C90.0786 14.4245 90.0786 14.4623 90.0786 14.5001C90.0786 14.538 90.0786 14.5759 90.0786 14.614C90.0786 14.652 90.0786 14.6901 90.0786 14.7283C90.0786 14.7664 90.0786 14.8047 90.0786 14.8431C90.0786 14.8814 90.0786 14.9198 90.0786 14.9584C90.0786 14.9969 90.0786 15.0355 90.0786 15.0742C90.0786 15.1129 90.0786 15.1516 90.0786 15.1905C90.0786 15.2293 90.0786 15.2682 90.0786 15.3073C90.0786 15.3463 90.0786 15.3854 90.0786 15.4246C90.0786 15.4637 90.0786 15.503 90.0786 15.5423C90.0786 15.5817 90.0786 15.6211 90.0786 15.6606C90.0786 15.7001 90.0786 15.7397 90.0786 15.7794C90.0786 15.819 90.0786 15.8588 90.0786 15.8986C90.0786 15.9385 90.0786 15.9784 90.0786 16.0184C90.0786 16.0584 90.0786 16.0985 90.0786 16.1386C90.0786 16.1788 90.0786 16.219 90.0786 16.2593C90.0786 16.2997 90.0786 16.3401 90.0786 16.3805C90.0786 16.421 90.0786 16.4616 90.0786 16.5022C90.0786 16.5429 90.0786 16.5836 90.0786 16.6244C90.0786 16.6652 90.0786 16.7061 90.0786 16.7471C90.0786 16.788 90.0786 16.8291 90.0786 16.8702C90.0786 16.9113 90.0786 16.9526 90.0786 16.9938C90.0786 17.0351 90.0786 17.0765 90.0786 17.1179C90.0786 17.1594 90.0786 17.2009 90.0786 17.2425C90.0786 17.2841 90.0786 17.3258 90.0786 17.3676C90.0786 17.4094 90.0786 17.4512 90.0786 17.4931C90.0786 17.535 90.0786 17.5771 90.0786 17.6191C90.0786 17.6612 90.0786 17.7034 90.0786 17.7456C90.0786 17.7879 90.0786 17.8302 90.0786 17.8726C90.0786 17.915 90.0786 17.9575 90.0786 18C90.0786 18.0426 90.0786 18.0852 90.0786 18.1279C90.0786 18.1706 90.0786 18.2134 90.0786 18.2563C90.0786 18.2992 90.0786 18.3421 90.0786 18.3851C90.0786 18.4282 90.0786 18.4713 90.0786 18.5145C90.0786 18.5576 90.0786 18.6009 90.0786 18.6442C90.0786 18.6876 90.0786 18.731 90.0786 18.7745C90.0786 18.818 90.0786 18.8616 90.0786 18.9052C90.0786 18.9489 90.0786 18.9926 90.0786 19.0364C90.0786 19.0802 90.0786 19.1241 90.0786 19.168C90.0786 19.212 90.0786 19.256 90.0786 19.3001C90.0786 19.3442 90.0786 19.3884 90.0786 19.4327C90.0786 19.477 90.0786 19.5213 90.0786 19.5657C90.0786 19.6101 90.0786 19.6546 90.0786 19.6992C90.0786 19.7438 90.0786 19.7884 90.0786 19.8331C90.0786 19.8779 90.0786 19.9227 90.0786 19.9675C90.0786 20.0124 90.0786 20.0574 90.0786 20.1024C90.0786 20.1474 90.0786 20.1925 90.0786 20.2377C90.0786 20.2829 90.0786 20.3281 90.0786 20.3735C90.0786 20.4188 90.0786 20.4642 90.0786 20.5097C90.0786 20.5552 90.0786 20.6007 90.0786 20.6463C90.0786 20.692 90.0786 20.7377 90.0786 20.7835C90.0786 20.8292 90.0786 20.8751 90.0786 20.921C90.0786 20.967 90.0786 21.013 90.0786 21.059C90.0786 21.1051 90.0786 21.1513 90.0786 21.1975C90.0786 21.2437 90.0786 21.29 90.0786 21.3364C90.0786 21.3828 90.0786 21.4293 90.0786 21.4758C90.0786 21.5223 90.0786 21.5689 90.0786 21.6156C90.0786 21.6623 90.0786 21.709 90.0786 21.7558C90.0786 21.8026 90.0786 21.8495 90.0786 21.8965C90.0786 21.9435 90.0786 21.9905 90.0786 22.0376C90.0786 22.0847 90.0786 22.1319 90.0786 22.1792C90.0786 22.2265 90.0786 22.2738 90.0786 22.3212C90.0786 22.3686 90.0786 22.4161 90.0786 22.4636C90.0786 22.5112 90.0786 22.5588 90.0786 22.6065C90.0786 22.6542 90.0786 22.702 90.0786 22.7498C90.0786 22.7977 90.0786 22.8456 90.0786 22.8936C90.0786 22.9416 90.0786 22.9897 90.0786 23.0378C90.0786 23.0859 90.0786 23.1341 90.0786 23.1824C90.0786 23.2307 90.0786 23.279 90.0786 23.3275C90.0786 23.3759 90.0786 23.4244 90.0786 23.4729C90.0786 23.5215 90.0786 23.5701 90.0786 23.6189C90.0786 23.6676 90.0786 23.7163 90.0786 23.7652C90.0786 23.814 90.0786 23.863 90.0786 23.912C90.0786 23.961 90.0786 24.01 90.0786 24.0592C90.0786 24.1083 90.0786 24.1575 90.0786 24.2068C90.0786 24.2561 90.0786 24.3054 90.0786 24.3548C90.0786 24.4042 90.0786 24.4537 90.0786 24.5033C90.0786 24.5528 90.0786 24.6025 90.0786 24.6522C90.0786 24.7019 90.0786 24.7516 90.0786 24.8015C90.0786 24.8513 90.0786 24.9012 90.0786 24.9512C90.0786 25.0012 90.0786 25.0513 90.0786 25.1014C90.0786 25.1515 90.0786 25.2017 90.0786 25.2519C90.0786 25.3022 90.0786 25.3525 90.0786 25.4029C90.0786 25.4533 90.0786 25.5038 90.0786 25.5543C90.0786 25.6049 90.0786 25.6555 90.0786 25.7062C90.0786 25.7568 90.0786 25.8076 90.0786 25.8584C90.0786 25.9092 90.0786 25.9601 90.0786 26.011C90.0786 26.062 90.0786 26.113 90.0786 26.1641C90.0786 26.2152 90.0786 26.2663 90.0786 26.3176C90.0786 26.3688 90.0786 26.4201 90.0786 26.4714C90.0786 26.5228 90.0786 26.5742 90.0786 26.6257C90.0786 26.6772 90.0786 26.7288 90.0786 26.7804C90.0786 26.832 90.0786 26.8837 90.0786 26.9355C90.0786 26.9873 90.0786 27.0391 90.0786 27.091C90.0786 27.1429 90.0786 27.1949 90.0786 27.2469C90.0786 27.299 90.0786 27.3511 90.0786 27.4032C90.0786 27.4554 90.0786 27.5077 90.0786 27.56C90.0786 27.6123 90.0786 27.6646 90.0786 27.7171C90.0786 27.7695 90.0786 27.822 90.0786 27.8746C90.0786 27.9272 90.0786 27.9798 90.0786 28.0325C90.0786 28.0852 90.0786 28.138 90.0786 28.1908C90.0786 28.2437 90.0786 28.2966 90.0786 28.3496C90.0786 28.4025 90.0786 28.4556 90.0786 28.5087C90.0786 28.5618 90.0786 28.6149 90.0786 28.6682C90.0786 28.7214 90.0786 28.7747 90.0786 28.8281C90.0786 28.8814 90.0786 28.9349 90.0786 28.9884C90.0786 29.0419 90.0786 29.0954 90.0786 29.149C90.0786 29.2027 90.0786 29.2564 90.0786 29.3101C90.0786 29.3639 90.0786 29.4177 90.0786 29.4716C90.0786 29.5255 90.0786 29.5794 90.0786 29.6334C90.0786 29.6875 90.0786 29.7415 90.0786 29.7957C90.0786 29.8498 90.0786 29.904 90.0786 29.9583C90.0786 30.0126 90.0786 30.0669 90.0786 30.1213C90.0786 30.1757 90.0786 30.2302 90.0786 30.2847C90.0786 30.3393 90.0786 30.3939 90.0786 30.4485C90.0786 30.5032 90.0786 30.5579 90.0786 30.6127C90.0786 30.6675 90.0786 30.7223 90.0786 30.7772C90.0786 30.8322 90.0786 30.8871 90.0786 30.9422C90.0786 30.9972 90.0786 31.0523 90.0786 31.1075C90.0786 31.1626 90.0786 31.2179 90.0786 31.2732C90.0786 31.3285 90.0786 31.3838 90.0786 31.4392C90.0786 31.4946 90.0786 31.5501 90.0786 31.6057C90.0786 31.6612 90.0786 31.7168 90.0786 31.7725C90.0786 31.8282 90.0786 31.8839 90.0786 31.9397C90.0786 31.9955 90.0786 32.0513 90.0786 32.1072C90.0786 32.1632 90.0786 32.2191 90.0786 32.2752C90.0786 32.3312 90.0786 32.3873 90.0786 32.4435C90.0786 32.4997 90.0786 32.5559 90.0786 32.6122C90.0786 32.6685 90.0786 32.7248 90.0786 32.7812C90.0786 32.8376 90.0786 32.8941 90.0786 32.9506C90.0786 33.0072 90.0786 33.0638 90.0786 33.1204C90.0786 33.1771 90.0786 33.2338 90.0786 33.2906C90.0786 33.3473 90.0786 33.4042 90.0786 33.4611C90.0786 33.518 90.0786 33.5749 90.0786 33.6319C90.0786 33.689 90.0786 33.746 90.0786 33.8032C90.0786 33.8603 90.0786 33.9175 90.0786 33.9748C90.0786 34.032 90.0786 34.0894 90.0786 34.1467C90.0786 34.2041 90.0786 34.2616 90.0786 34.3191C90.0786 34.3766 90.0786 34.4341 90.0786 34.4917C90.0786 34.5494 90.0786 34.607 90.0786 34.6648C90.0786 34.7225 90.0786 34.7803 90.0786 34.8382C90.0786 34.896 90.0786 34.9539 90.0786 35.0119C90.0786 35.0699 90.0786 35.1279 90.0786 35.186C90.0786 35.2441 90.0786 35.3023 90.0786 35.3605C90.0786 35.4187 90.0786 35.477 90.0786 35.5353C90.0786 35.5936 90.0786 35.652 90.0786 35.7105C90.0786 35.7689 90.0786 35.8274 90.0786 35.886C90.0786 35.9445 90.0786 36.0031 90.0786 36.0618C90.0786 36.1205 90.0786 36.1792 90.0786 36.238C90.0786 36.2968 90.0786 36.3557 90.0786 36.4146C90.0786 36.4735 90.0786 36.5325 90.0786 36.5915C90.0786 36.6505 90.0786 36.7096 90.0786 36.7687C90.0786 36.8279 90.0786 36.8871 90.0786 36.9463C90.0786 37.0056 90.0786 37.0649 90.0786 37.1243C90.0786 37.1836 90.0786 37.243 90.0786 37.3025C90.0786 37.362 90.0786 37.4216 90.0786 37.4811C90.0786 37.5407 90.0786 37.6004 90.0786 37.6601C90.0786 37.7198 90.0786 37.7796 90.0786 37.8394C90.0786 37.8992 90.0786 37.9591 90.0786 38.019C90.0786 38.079 90.0786 38.139 90.0786 38.199C90.0786 38.259 90.0786 38.3191 90.0786 38.3793C90.0786 38.4395 90.0786 38.4997 90.0786 38.5599C90.0786 38.6202 90.0786 38.6805 90.0786 38.7409C90.0786 38.8013 90.0786 38.8617 90.0786 38.9222C90.0786 38.9827 90.0786 39.0433 90.0786 39.1039C90.0786 39.1645 90.0786 39.2251 90.0786 39.2858C90.0786 39.3465 90.0786 39.4073 90.0786 39.4681C90.0786 39.5289 90.0786 39.5898 90.0786 39.6507C90.0786 39.7117 90.0786 39.7727 90.0786 39.8337C90.0786 39.8947 90.0786 39.9558 90.0786 40.017C90.0786 40.0781 90.0786 40.1393 90.0786 40.2006C90.0786 40.2618 90.0786 40.3231 90.0786 40.3845C90.0786 40.4459 90.0786 40.5073 90.0786 40.5687C90.0786 40.6302 90.0786 40.6917 90.0786 40.7533C90.0786 40.8149 90.0786 40.8765 90.0786 40.9382C90.0786 40.9999 90.0786 41.0616 90.0786 41.1234C90.0786 41.1852 90.0786 41.2471 90.0786 41.309C90.0786 41.3708 90.0786 41.4328 90.0786 41.4948C90.0786 41.5568 90.0786 41.6189 90.0786 41.681C90.0786 41.7431 90.0786 41.8052 90.0786 41.8674C90.0786 41.9297 90.0786 41.9919 90.0786 42.0542C90.0786 42.1166 90.0786 42.1789 90.0786 42.2414C90.0786 42.3038 90.0786 42.3662 90.0786 42.4288C90.0786 42.4913 90.0786 42.5539 90.0786 42.6165C90.0786 42.6791 90.0786 42.7418 90.0786 42.8046C90.0786 42.8673 90.0786 42.9301 90.0786 42.9929C90.0786 43.0557 90.0786 43.1186 90.0786 43.1816C90.0786 43.2445 90.0786 43.3075 90.0786 43.3705C90.0786 43.4336 90.0786 43.4967 90.0786 43.5598C90.0786 43.623 90.0786 43.6861 90.0786 43.7494C90.0786 43.8126 90.0786 43.8759 90.0786 43.9393C90.0786 44.0026 90.0786 44.066 90.0786 44.1295C90.0786 44.1929 90.0786 44.2564 90.0786 44.32C90.0786 44.3835 90.0786 44.4471 90.0786 44.5107C90.0786 44.5744 90.0786 44.6381 90.0786 44.7018C90.0786 44.7656 90.0786 44.8294 90.0786 44.8932C90.0786 44.9571 90.0786 45.021 90.0786 45.0849C90.0786 45.1489 90.0786 45.2129 90.0786 45.2769C90.0786 45.3409 90.0786 45.405 90.0786 45.4692C90.0786 45.5333 90.0786 45.5975 90.0786 45.6618C90.0786 45.726 90.0786 45.7903 90.0786 45.8546C90.0786 45.919 90.0786 45.9833 90.0786 46.0478C90.0786 46.1122 90.0786 46.1767 90.0786 46.2412C90.0786 46.3058 90.0786 46.3704 90.0786 46.435C90.0786 46.4996 90.0786 46.5643 90.0786 46.629C90.0786 46.6937 90.0786 46.7585 90.0786 46.8233C90.0786 46.8882 90.0786 46.953 90.0786 47.0179C90.0786 47.0829 90.0786 47.1478 90.0786 47.2128C90.0786 47.2779 90.0786 47.3429 90.0786 47.408C90.0786 47.4731 90.0786 47.5383 90.0786 47.6035C90.0786 47.6687 90.0786 47.7339 90.0786 47.7992C90.0786 47.8645 90.0786 47.9299 90.0786 47.9953C90.0786 48.0607 90.0786 48.1261 90.0786 48.1916C90.0786 48.2571 90.0786 48.3226 90.0786 48.3882C90.0786 48.4538 90.0786 48.5194 90.0786 48.585C90.0786 48.6507 90.0786 48.7164 90.0786 48.7822C90.0786 48.848 90.0786 48.9138 90.0786 48.9796C90.0786 49.0455 90.0786 49.1114 90.0786 49.1773C90.0786 49.2433 90.0786 49.3093 90.0786 49.3753C90.0786 49.4413 90.0786 49.5074 90.0786 49.5736C90.0786 49.6397 90.0786 49.7059 90.0786 49.7721C90.0786 49.8383 90.0786 49.9046 90.0786 49.9709C90.0786 50.0372 90.0786 50.1035 90.0786 50.1699C90.0786 50.2363 90.0786 50.3028 90.0786 50.3693C90.0786 50.4358 90.0786 50.5023 90.0786 50.5689C90.0786 50.6355 90.0786 50.7021 90.0786 50.7688C90.0786 50.8354 90.0786 50.9021 90.0786 50.9689C90.0786 51.0357 90.0786 51.1025 90.0786 51.1693C90.0786 51.2361 90.0786 51.303 90.0786 51.37C90.0786 51.4369 90.0786 51.5039 90.0786 51.5709C90.0786 51.6379 90.0786 51.705 90.0786 51.7721C90.0786 51.8392 90.0786 51.9064 90.0786 51.9735C90.0786 52.0407 90.0786 52.108 90.0786 52.1753C90.0786 52.2425 90.0786 52.3099 90.0786 52.3772C90.0786 52.4446 90.0786 52.512 90.0786 52.5795C90.0786 52.6469 90.0786 52.7144 90.0786 52.782C90.0786 52.8495 90.0786 52.9171 90.0786 52.9847C90.0786 53.0523 90.0786 53.12 90.0786 53.1877C90.0786 53.2554 90.0786 53.3232 90.0786 53.391C90.0786 53.4588 90.0786 53.5266 90.0786 53.5945C90.0786 53.6624 90.0786 53.7303 90.0786 53.7982C90.0786 53.8662 90.0786 53.9342 90.0786 54.0022C90.0786 54.0703 90.0786 54.1384 90.0786 54.2065C90.0786 54.2746 90.0786 54.3428 90.0786 54.411C90.0786 54.4792 90.0786 54.5475 90.0786 54.6158C90.0786 54.6841 90.0786 54.7524 90.0786 54.8208C90.0786 54.8892 90.0786 54.9576 90.0786 55.026C90.0786 55.0945 90.0786 55.163 90.0786 55.2315C90.0786 55.3001 90.0786 55.3686 90.0786 55.4373C90.0786 55.5059 90.0786 55.5745 90.0786 55.6432C90.0786 55.7119 90.0786 55.7807 90.0786 55.8495C90.0786 55.9182 90.0786 55.9871 90.0786 56.0559C90.0786 56.1248 90.0786 56.1937 90.0786 56.2626C90.0786 56.3316 90.0786 56.4005 90.0786 56.4696C90.0786 56.5386 90.0786 56.6076 90.0786 56.6767C90.0786 56.7458 90.0786 56.815 90.0786 56.8842C90.0786 56.9533 90.0786 57.0225 90.0786 57.0918C90.0786 57.1611 90.0786 57.2304 90.0786 57.2997C90.0786 57.369 90.0786 57.4384 90.0786 57.5078C90.0786 57.5772 90.0786 57.6467 90.0786 57.7161C90.0786 57.7856 90.0786 57.8552 90.0786 57.9247C90.0786 57.9943 90.0786 58.0639 90.0786 58.1335C90.0786 58.2032 90.0786 58.2729 90.0786 58.3426C90.0786 58.4123 90.0786 58.482 90.0786 58.5518C90.0786 58.6216 90.0786 58.6915 90.0786 58.7613C90.0786 58.8312 90.0786 58.9011 90.0786 58.971C90.0786 59.041 90.0786 59.111 90.0786 59.181C90.0786 59.251 90.0786 59.3211 90.0786 59.3911C90.0786 59.4612 90.0786 59.5314 90.0786 59.6015C90.0786 59.6717 90.0786 59.7419 90.0786 59.8121C90.0786 59.8824 90.0786 59.9527 90.0786 60.023C90.0786 60.0933 90.0786 60.1636 90.0786 60.234C90.0786 60.3044 90.0786 60.3748 90.0786 60.4453C90.0786 60.5158 90.0786 60.5862 90.0786 60.6568C90.0786 60.7273 90.0786 60.7979 90.0786 60.8685C90.0786 60.9391 90.0786 61.0097 90.0786 61.0804C90.0786 61.1511 90.0786 61.2218 90.0786 61.2925C90.0786 61.3633 90.0786 61.4341 90.0786 61.5049C90.0786 61.5757 90.0786 61.6465 90.0786 61.7174C90.0786 61.7883 90.0786 61.8592 90.0786 61.9302C90.0786 62.0012 90.0786 62.0721 90.0786 62.1432C90.0786 62.2142 90.0786 62.2853 90.0786 62.3564C90.0786 62.4275 90.0786 62.4986 90.0786 62.5698C90.0786 62.6409 90.0786 62.7121 90.0786 62.7834C90.0786 62.8546 90.0786 62.9259 90.0786 62.9972C90.0786 63.0685 90.0786 63.1398 90.0786 63.2112C90.0786 63.2825 90.0786 63.354 90.0786 63.4254C90.0786 63.4968 90.0786 63.5683 90.0786 63.6398C90.0786 63.7113 90.0786 63.7829 90.0786 63.8544C90.0786 63.926 90.0786 63.9976 90.0786 64.0692C90.0786 64.1409 90.0786 64.2126 90.0786 64.2843C90.0786 64.356 90.0786 64.4277 90.0786 64.4995C90.0786 64.5713 90.0786 64.6431 90.0786 64.7149C90.0786 64.7867 90.0786 64.8586 90.0786 64.9305C90.0786 65.0024 90.0786 65.0744 90.0786 65.1463C90.0786 65.2183 90.0786 65.2903 90.0786 65.3623C90.0786 65.4344 90.0786 65.5064 90.0786 65.5785C90.0786 65.6506 90.0786 65.7227 90.0786 65.7949C90.0786 65.8671 90.0786 65.9393 90.0786 66.0115C90.0786 66.0837 90.0786 66.156 90.0786 66.2283C90.0786 66.3005 90.0786 66.3729 90.0786 66.4452C90.0786 66.5176 90.0786 66.5899 90.0786 66.6624C90.0786 66.7348 90.0786 66.8072 90.0786 66.8797C90.0786 66.9522 90.0786 67.0247 90.0786 67.0972C90.0786 67.1697 90.0786 67.2423 90.0786 67.3149C90.0786 67.3875 90.0786 67.4601 90.0786 67.5328C90.0786 67.6055 90.0786 67.6782 90.0786 67.7509C90.0786 67.8236 90.0786 67.8963 90.0786 67.9691C90.0786 68.0419 90.0786 68.1147 90.0786 68.1876C90.0786 68.2604 90.0786 68.3333 90.0786 68.4062C90.0786 68.4791 90.0786 68.552 90.0786 68.625C90.0786 68.6979 90.0786 68.7709 90.0786 68.8439C90.0786 68.9169 90.0786 68.99 90.0786 69.0631C90.0786 69.1362 90.0786 69.2093 90.0786 69.2824C90.0786 69.3555 90.0786 69.4287 90.0786 69.5019C90.0786 69.5751 90.0786 69.6483 90.0786 69.7216C90.0786 69.7948 90.0786 69.8681 90.0786 69.9414C90.0786 70.0147 90.0786 70.0881 90.0786 70.1614C90.0786 70.2348 90.0786 70.3082 90.0786 70.3816C90.0786 70.455 90.0786 70.5285 90.0786 70.602C90.0786 70.6754 90.0786 70.7489 90.0786 70.8225C90.0786 70.896 90.0786 70.9696 90.0786 71.0432C90.0786 71.1167 90.0786 71.1904 90.0786 71.264C90.0786 71.3377 90.0786 71.4113 90.0786 71.485H92.9609Z" fill="#07003A"/>
<path d="M119.904 72.0911C119.909 73.683 121.204 74.9692 122.795 74.9639C124.387 74.9587 125.674 73.6639 125.668 72.0721L122.786 72.0816L119.904 72.0911ZM91.7573 0.298361L88.875 0.306638L88.8915 6.07136L91.7739 6.06309L91.7656 3.18072L91.7573 0.298361ZM122.786 72.0816L125.668 72.0721C125.603 52.3774 122.049 34.7176 116.229 21.8784C110.524 9.29479 102.087 0.268699 91.7573 0.298361L91.7656 3.18072L91.7739 6.06309C98.4465 6.04392 105.455 12.0758 110.978 24.2586C116.385 36.1858 119.841 53.0008 119.904 72.0911L122.786 72.0816Z" fill="#07003A"/>
<path d="M150.33 71.793C150.335 73.3849 151.63 74.671 153.222 74.6657C154.814 74.6603 156.1 73.3654 156.094 71.7736L153.212 71.7833L150.33 71.793ZM92.9528 0.298512L90.0705 0.306608L90.0867 6.07133L92.969 6.06324L92.9609 3.18088L92.9528 0.298512ZM153.212 71.7833L156.094 71.7736C155.962 32.5768 128.048 0.199941 92.9528 0.298512L92.9609 3.18088L92.969 6.06324C124.171 5.9756 150.205 35.0175 150.33 71.793L153.212 71.7833Z" fill="#07003A"/>
<path d="M183.637 77.7485C183.637 74.0201 182.34 70.7863 179.761 67.9829C177.182 65.1796 173.646 63.44 169.847 63.1062C166.048 62.7723 162.262 63.8682 159.232 66.1786C156.201 68.489 154.146 71.8468 153.471 75.5922C152.814 72.0878 150.947 68.924 148.195 66.6509C145.442 64.3777 141.979 63.139 138.406 63.1499C134.834 63.1609 131.378 64.421 128.64 66.711C125.902 69.001 124.055 72.1762 123.419 75.6846C122.759 72.182 120.89 69.021 118.137 66.7502C115.384 64.4795 111.922 63.2425 108.35 63.2541C104.779 63.2657 101.324 64.5251 98.5864 66.8137C95.8485 69.1022 94.0003 72.2754 93.3626 75.7821C92.7056 72.2777 90.8387 69.114 88.0865 66.8408C85.3343 64.5676 81.8708 63.3289 78.2983 63.3399C74.7257 63.3509 71.27 64.6109 68.5319 66.9009C65.7937 69.191 63.9464 72.3662 63.3111 75.8745C62.6535 72.3702 60.786 69.2068 58.0334 66.9341C55.2808 64.6614 51.8172 63.4232 48.2446 63.4348C44.672 63.4464 41.2165 64.707 38.4788 66.9975C35.7411 69.2881 33.8943 72.4636 33.2595 75.972C32.5626 72.2282 30.4869 68.8802 27.441 66.5866C24.395 64.293 20.5992 63.2199 16.8004 63.5784C13.0015 63.9369 9.47464 65.7011 6.91352 68.5238C4.3524 71.3465 2.94248 75.0235 2.96112 78.8313" fill="#F6D16E"/>
<path d="M183.637 77.7485C183.637 74.0201 182.34 70.7863 179.761 67.9829C177.182 65.1796 173.646 63.44 169.847 63.1062C166.048 62.7723 162.262 63.8682 159.232 66.1786C156.201 68.489 154.146 71.8468 153.471 75.5922C152.814 72.0878 150.947 68.924 148.195 66.6509C145.442 64.3777 141.979 63.139 138.406 63.1499C134.834 63.1609 131.378 64.421 128.64 66.711C125.902 69.001 124.055 72.1762 123.419 75.6846C122.759 72.182 120.89 69.021 118.137 66.7502C115.384 64.4795 111.922 63.2425 108.35 63.2541C104.779 63.2657 101.324 64.5251 98.5864 66.8137C95.8485 69.1022 94.0003 72.2754 93.3626 75.7821C92.7056 72.2777 90.8387 69.114 88.0865 66.8408C85.3343 64.5676 81.8708 63.3289 78.2983 63.3399C74.7257 63.3509 71.27 64.6109 68.5319 66.9009C65.7937 69.191 63.9464 72.3662 63.3111 75.8745C62.6535 72.3702 60.786 69.2068 58.0334 66.9341C55.2808 64.6614 51.8172 63.4232 48.2446 63.4348C44.672 63.4464 41.2165 64.707 38.4788 66.9975C35.7411 69.2881 33.8943 72.4636 33.2595 75.972C32.5626 72.2282 30.4869 68.8802 27.441 66.5866C24.395 64.293 20.5992 63.2199 16.8004 63.5784C13.0015 63.9369 9.47464 65.7011 6.91352 68.5238C4.3524 71.3465 2.94248 75.0235 2.96112 78.8313" stroke="#07003A" stroke-width="5.76475" stroke-miterlimit="10" stroke-linecap="round" stroke-linejoin="round"/>
<path d="M231.617 16.5513L244.466 48.4977H247.084L259.872 16.5513H257.192L245.806 45.7384L234.357 16.5513H231.617ZM288.368 48.4977L288.246 27.2822C288.185 20.6594 284.105 16.4902 276.615 16.4902C271.805 16.4902 268.151 18.2686 264.376 21.0273L265.594 22.9898C268.943 20.4142 272.292 18.8201 276.25 18.8201C282.583 18.8201 285.688 22.0699 285.75 27.4659V30.593H274.484C267.177 30.593 262.67 33.8428 262.67 39.1772C262.67 44.5732 266.872 48.5594 273.144 48.5594C278.625 48.5594 283.131 46.5968 285.81 42.1818L285.871 48.4977H288.368ZM273.51 46.2289C268.334 46.2289 265.107 43.347 265.107 39.1162C265.107 35.0081 268.516 32.8619 274.727 32.8619H285.81V38.0736C283.862 43.6539 279.417 46.2289 273.51 46.2289ZM324.258 16.5513V24.7682C322.004 19.6784 317.316 16.4902 311.226 16.4902C302.762 16.4902 296.612 22.9282 296.612 31.8809C296.612 40.7719 302.762 47.2099 311.287 47.2099C317.316 47.2099 322.065 44.0827 324.258 38.9936V45.0027C324.258 52.9738 319.142 58.0635 311.287 58.0019C306.72 57.8793 303.127 56.4078 299.839 53.2806L298.499 55.1816C302.214 58.554 306.294 60.2707 311.348 60.3933C320.665 60.4544 326.693 54.4452 326.693 45.0027V16.5513H324.258ZM311.592 45.0027C304.223 45.0027 298.987 39.4841 298.987 31.9419C298.987 24.3387 304.284 18.8201 311.592 18.8201C318.899 18.8201 324.258 24.3387 324.258 31.9419C324.258 39.4841 318.899 45.0027 311.592 45.0027ZM361.392 48.4977L361.271 27.2822C361.21 20.6594 357.13 16.4902 349.64 16.4902C344.83 16.4902 341.176 18.2686 337.4 21.0273L338.619 22.9898C341.968 20.4142 345.317 18.8201 349.275 18.8201C355.608 18.8201 358.713 22.0699 358.774 27.4659V30.593H347.509C340.202 30.593 335.696 33.8428 335.696 39.1772C335.696 44.5732 339.897 48.5594 346.169 48.5594C351.65 48.5594 356.156 46.5968 358.835 42.1818L358.896 48.4977H361.392ZM346.535 46.2289C341.358 46.2289 338.131 43.347 338.131 39.1162C338.131 35.0081 341.541 32.8619 347.752 32.8619H358.835V38.0736C356.887 43.6539 352.441 46.2289 346.535 46.2289ZM388.514 21.0889L389.61 19.0043C387.113 17.4712 384.068 16.4902 380.536 16.4902C374.934 16.4902 370.124 18.9427 370.124 24.5229C370.124 35.4985 388.879 31.3904 388.635 40.4041C388.453 44.4506 384.617 46.2289 380.171 46.2289C376.152 46.2289 372.316 44.7575 369.576 42.1818L368.419 44.1443C371.341 46.9647 375.604 48.5594 380.049 48.5594C385.773 48.5594 391.071 45.9227 391.071 39.9746C391.071 28.6921 372.56 32.9229 372.56 24.3387C372.56 20.5368 376.031 18.8201 380.476 18.8201C383.52 18.8201 386.322 19.6784 388.514 21.0889Z" fill="#07003A"/>
<path d="M269.252 151.55C291.534 151.55 304.746 138.696 304.746 115.471V71.2734H286.831V114.794C286.831 129.79 280.449 135.991 269.364 135.991C258.391 135.991 251.897 129.79 251.897 114.794V71.2734H233.758V115.471C233.758 138.696 246.97 151.55 269.252 151.55ZM391.894 150.197L362.67 109.382L389.991 71.2734H370.396L352.705 96.8674L334.678 71.2734H314.076L341.62 110.059L312.62 150.197H333.446L352.033 122.799L370.956 150.197H391.894Z" fill="#07003A"/>
<path d="M416.088 142.738C416.088 138.008 412.28 134.173 407.583 134.173C402.886 134.173 399.078 138.008 399.078 142.738C399.078 147.468 402.886 151.302 407.583 151.302C412.28 151.302 416.088 147.468 416.088 142.738Z" fill="#F6D16E"/>
</svg>
