<svg width="383" height="158" viewBox="0 0 383 158" fill="none" xmlns="http://www.w3.org/2000/svg">
<path d="M105.572 146.986C105.663 145.876 104.837 144.903 103.727 144.812C102.618 144.721 101.644 145.546 101.553 146.656L103.563 146.821L105.572 146.986ZM93.8489 155.065L93.6841 157.074L93.6847 157.074L93.8489 155.065ZM85.782 146.165L87.7914 146.33L87.7976 146.254L87.7981 146.178L85.782 146.165ZM103.563 146.821L101.553 146.656C101.402 148.505 100.522 150.217 99.1084 151.417L100.413 152.954L101.718 154.492C103.947 152.6 105.333 149.9 105.572 146.986L103.563 146.821ZM100.413 152.954L99.1084 151.417C97.6944 152.617 95.8616 153.207 94.0132 153.056L93.8489 155.065L93.6847 157.074C96.5989 157.313 99.4883 156.384 101.718 154.492L100.413 152.954ZM93.8489 155.065L94.0138 153.056C91.9663 152.888 90.3395 152.088 89.2782 150.948C88.2335 149.827 87.6323 148.269 87.7914 146.33L85.782 146.165L83.7727 146C83.5248 149.021 84.4772 151.71 86.3277 153.697C88.1617 155.665 90.7717 156.835 93.6841 157.074L93.8489 155.065ZM85.782 146.165L87.7981 146.178L88.3774 56.2737L86.3613 56.2607L84.3452 56.2478L83.766 146.152L85.782 146.165Z" fill="white"/>
<path d="M170.315 73.353C170.306 69.8171 168.973 66.412 166.577 63.8073C164.18 61.2026 160.894 59.5865 157.365 59.2763C153.835 58.9661 150.317 59.9844 147.501 62.1308C144.686 64.2777 142.777 67.3978 142.149 70.8773C141.538 67.6216 139.804 64.6821 137.246 62.57C134.69 60.4578 131.472 59.3068 128.152 59.317C124.833 59.3272 121.622 60.4979 119.078 62.6258C116.534 64.7535 114.817 67.7038 114.227 70.9631C113.613 67.7092 111.877 64.7721 109.319 62.6624C106.761 60.5523 103.544 59.403 100.226 59.4138C96.9077 59.4245 93.6976 60.5947 91.1541 62.7212C88.61 64.8477 86.8928 67.7956 86.3 71.0543C85.6897 67.798 83.9551 64.8585 81.3978 62.7464C78.8411 60.6342 75.6226 59.4833 72.3033 59.4935C68.984 59.5037 65.7733 60.6744 63.2292 62.8022C60.6851 64.9299 58.9686 67.8802 58.3783 71.1401C57.7673 67.8838 56.0322 64.9449 53.4746 62.8328C50.9171 60.7214 47.6989 59.5709 44.3794 59.5817C41.06 59.5924 37.8493 60.764 35.3057 62.8922C32.7619 65.0199 31.046 67.9708 30.4562 71.2307C29.8087 67.7518 27.8801 64.6413 25.05 62.51C22.2199 60.379 18.6931 59.382 15.1635 59.7151C11.6338 60.0482 8.35684 61.6874 5.97716 64.3101C3.59754 66.9328 2.28753 70.3493 2.30486 73.887" fill="#F6D16E"/>
<path d="M122.186 16.7602L105.773 5.49414H110.363L125.941 10.084L139.154 16.7602L150.977 26.3573L164.329 42.3523L170.171 60.7119V63.3545C169.429 63.3545 167.862 63.2433 167.528 62.7982C167.194 62.3531 164.422 60.0164 163.077 58.9037H153.202L146.109 63.9109L143.744 65.3018L142.632 63.3545L140.823 48.7504L134.147 32.338L122.186 16.7602Z" fill="#F6D16E"/>
<path d="M50.3173 16.8989L66.8359 5.63281H62.2163L46.5376 10.2227L33.2386 16.8989L21.3396 26.4959L7.90068 42.491L2.02116 60.8505V63.4932C2.76776 63.4932 4.34497 63.3819 4.68094 62.9369C5.01691 62.4918 7.80735 60.1551 9.16058 59.0424H19.0998L26.2392 64.0496L28.619 65.4404L29.7389 63.4932L31.5588 48.889L38.2782 32.4767L50.3173 16.8989Z" fill="#F6D16E"/>
<path d="M106.196 23.4364L94.9297 4.52051H101.606L111.203 9.38857L124.416 19.8201L134.57 33.868L142.219 59.7383L140.133 63.6327L134.57 59.7383L127.754 58.4865L121.217 60.99L114.263 65.5799L112.872 50.8367L111.203 38.3188L106.196 23.4364Z" fill="#F6D16E"/>
<path d="M64.1625 23.4795L74.8984 4.52051H68.5364L59.391 9.39966L46.7995 19.855L37.1239 33.9348L29.8341 59.864L31.8222 63.7673L37.1239 59.864L43.6185 58.6094L49.848 61.1187L56.4751 65.719L57.8005 50.9422L59.391 38.3958L64.1625 23.4795Z" fill="#F6D16E"/>
<path d="M87.5547 64.0495V3.68555L95.4827 6.60638L103.272 15.6471L109.67 31.364L112.869 63.0759L99.7944 57.6515L87.5547 64.0495Z" fill="#F6D16E"/>
<path d="M86.3047 64.0495V3.68555L77.4184 6.60638L68.688 15.6471L61.5165 31.364L57.9308 63.0759L72.5855 57.6515L86.3047 64.0495Z" fill="#F6D16E"/>
<path d="M-0.000201702 69.3415L0.00631118 71.3576L4.03853 71.3446L4.03202 69.3284L2.01591 69.335L-0.000201702 69.3415ZM168.574 68.8139C168.577 69.9274 169.483 70.8271 170.596 70.8235C171.71 70.8199 172.609 69.9143 172.606 68.8009L170.59 68.8074L168.574 68.8139ZM2.01591 69.335L4.03202 69.3284C3.91729 33.8138 40.2031 4.1772 86.0914 4.03325L86.0851 2.01713L86.0787 0.00102234C38.8727 0.149115 -0.124744 30.7881 -0.000201702 69.3415L2.01591 69.335ZM86.0851 2.01713L86.0914 4.03325C131.98 3.88929 168.459 33.299 168.574 68.8139L170.59 68.8074L172.606 68.8009C172.481 30.2478 133.285 -0.14707 86.0787 0.00102234L86.0851 2.01713Z" fill="#07003A"/>
<path d="M27.8203 66.8381L27.8269 68.8542L31.8592 68.8408L31.8525 66.8247L29.8364 66.8314L27.8203 66.8381ZM86.0335 4.03271C87.1469 4.0293 88.0468 3.12389 88.0434 2.01042C88.04 0.896949 87.1346 -0.00292587 86.0211 0.000489473L86.0273 2.0166L86.0335 4.03271ZM29.8364 66.8314L31.8525 66.8247C31.7359 31.6609 56.2403 4.1241 86.0335 4.03271L86.0273 2.0166L86.0211 0.000489473C53.5137 0.100201 27.698 29.9672 27.8203 66.8381L29.8364 66.8314Z" fill="#07003A"/>
<path d="M56.1958 67.1166L56.2026 69.1327L60.2348 69.1192L60.228 67.1031L58.2119 67.1098L56.1958 67.1166ZM86.3129 4.58935C87.4263 4.58591 88.3262 3.68047 88.3227 2.567C88.3193 1.45353 87.4138 0.553681 86.3004 0.55713L86.3066 2.57324L86.3129 4.58935ZM58.2119 67.1098L60.228 67.1031C60.1686 49.4154 62.7885 33.5821 67.4999 22.244C72.2641 10.779 78.8221 4.61256 86.3129 4.58935L86.3066 2.57324L86.3004 0.55713C76.2548 0.588247 68.7055 8.83473 63.7764 20.6967C58.7945 32.6856 56.1353 49.0934 56.1958 67.1166L58.2119 67.1098Z" fill="#07003A"/>
<path d="M84.0073 65.997V68.0131H88.0396V65.997H86.0234H84.0073ZM88.0396 2.29492C88.0396 1.18145 87.1369 0.2788 86.0234 0.2788C84.91 0.2788 84.0073 1.18145 84.0073 2.29492H86.0234H88.0396ZM86.0234 65.997H88.0396C88.0396 65.9283 88.0396 65.8596 88.0396 65.7909C88.0396 65.7222 88.0396 65.6535 88.0396 65.5849C88.0396 65.5163 88.0396 65.4477 88.0396 65.3791C88.0396 65.3105 88.0396 65.2419 88.0396 65.1734C88.0396 65.1049 88.0396 65.0364 88.0396 64.9679C88.0396 64.8994 88.0396 64.831 88.0396 64.7626C88.0396 64.6941 88.0396 64.6257 88.0396 64.5574C88.0396 64.489 88.0396 64.4207 88.0396 64.3523C88.0396 64.284 88.0396 64.2157 88.0396 64.1475C88.0396 64.0792 88.0396 64.011 88.0396 63.9428C88.0396 63.8746 88.0396 63.8064 88.0396 63.7382C88.0396 63.6701 88.0396 63.602 88.0396 63.5339C88.0396 63.4658 88.0396 63.3977 88.0396 63.3296C88.0396 63.2616 88.0396 63.1936 88.0396 63.1256C88.0396 63.0576 88.0396 62.9896 88.0396 62.9217C88.0396 62.8538 88.0396 62.7859 88.0396 62.718C88.0396 62.6501 88.0396 62.5823 88.0396 62.5144C88.0396 62.4466 88.0396 62.3788 88.0396 62.3111C88.0396 62.2433 88.0396 62.1756 88.0396 62.1079C88.0396 62.0401 88.0396 61.9725 88.0396 61.9048C88.0396 61.8372 88.0396 61.7696 88.0396 61.702C88.0396 61.6344 88.0396 61.5668 88.0396 61.4993C88.0396 61.4317 88.0396 61.3642 88.0396 61.2968C88.0396 61.2293 88.0396 61.1618 88.0396 61.0944C88.0396 61.027 88.0396 60.9596 88.0396 60.8923C88.0396 60.8249 88.0396 60.7576 88.0396 60.6903C88.0396 60.623 88.0396 60.5557 88.0396 60.4885C88.0396 60.4212 88.0396 60.354 88.0396 60.2868C88.0396 60.2197 88.0396 60.1525 88.0396 60.0854C88.0396 60.0183 88.0396 59.9512 88.0396 59.8841C88.0396 59.8171 88.0396 59.75 88.0396 59.683C88.0396 59.616 88.0396 59.5491 88.0396 59.4821C88.0396 59.4152 88.0396 59.3483 88.0396 59.2814C88.0396 59.2145 88.0396 59.1477 88.0396 59.0809C88.0396 59.0141 88.0396 58.9473 88.0396 58.8805C88.0396 58.8138 88.0396 58.7471 88.0396 58.6804C88.0396 58.6137 88.0396 58.547 88.0396 58.4804C88.0396 58.4138 88.0396 58.3472 88.0396 58.2806C88.0396 58.2141 88.0396 58.1475 88.0396 58.081C88.0396 58.0145 88.0396 57.9481 88.0396 57.8816C88.0396 57.8152 88.0396 57.7488 88.0396 57.6824C88.0396 57.6161 88.0396 57.5497 88.0396 57.4834C88.0396 57.4171 88.0396 57.3508 88.0396 57.2846C88.0396 57.2183 88.0396 57.1521 88.0396 57.086C88.0396 57.0198 88.0396 56.9536 88.0396 56.8875C88.0396 56.8214 88.0396 56.7553 88.0396 56.6893C88.0396 56.6232 88.0396 56.5572 88.0396 56.4913C88.0396 56.4253 88.0396 56.3593 88.0396 56.2934C88.0396 56.2275 88.0396 56.1616 88.0396 56.0958C88.0396 56.0299 88.0396 55.9641 88.0396 55.8983C88.0396 55.8326 88.0396 55.7668 88.0396 55.7011C88.0396 55.6354 88.0396 55.5697 88.0396 55.5041C88.0396 55.4384 88.0396 55.3728 88.0396 55.3072C88.0396 55.2417 88.0396 55.1761 88.0396 55.1106C88.0396 55.0451 88.0396 54.9796 88.0396 54.9142C88.0396 54.8488 88.0396 54.7834 88.0396 54.718C88.0396 54.6526 88.0396 54.5873 88.0396 54.522C88.0396 54.4567 88.0396 54.3914 88.0396 54.3262C88.0396 54.261 88.0396 54.1958 88.0396 54.1306C88.0396 54.0654 88.0396 54.0003 88.0396 53.9352C88.0396 53.8701 88.0396 53.8051 88.0396 53.7401C88.0396 53.675 88.0396 53.6101 88.0396 53.5451C88.0396 53.4802 88.0396 53.4152 88.0396 53.3504C88.0396 53.2855 88.0396 53.2207 88.0396 53.1558C88.0396 53.091 88.0396 53.0263 88.0396 52.9615C88.0396 52.8968 88.0396 52.8321 88.0396 52.7674C88.0396 52.7028 88.0396 52.6382 88.0396 52.5736C88.0396 52.509 88.0396 52.4444 88.0396 52.3799C88.0396 52.3154 88.0396 52.2509 88.0396 52.1865C88.0396 52.122 88.0396 52.0576 88.0396 51.9933C88.0396 51.9289 88.0396 51.8646 88.0396 51.8003C88.0396 51.736 88.0396 51.6717 88.0396 51.6075C88.0396 51.5433 88.0396 51.4791 88.0396 51.4149C88.0396 51.3508 88.0396 51.2867 88.0396 51.2226C88.0396 51.1585 88.0396 51.0945 88.0396 51.0305C88.0396 50.9665 88.0396 50.9026 88.0396 50.8386C88.0396 50.7747 88.0396 50.7108 88.0396 50.647C88.0396 50.5831 88.0396 50.5193 88.0396 50.4556C88.0396 50.3918 88.0396 50.3281 88.0396 50.2644C88.0396 50.2007 88.0396 50.137 88.0396 50.0734C88.0396 50.0098 88.0396 49.9462 88.0396 49.8827C88.0396 49.8191 88.0396 49.7556 88.0396 49.6922C88.0396 49.6287 88.0396 49.5653 88.0396 49.5019C88.0396 49.4385 88.0396 49.3752 88.0396 49.3119C88.0396 49.2486 88.0396 49.1853 88.0396 49.1221C88.0396 49.0589 88.0396 48.9957 88.0396 48.9325C88.0396 48.8694 88.0396 48.8063 88.0396 48.7432C88.0396 48.6801 88.0396 48.6171 88.0396 48.5541C88.0396 48.4911 88.0396 48.4282 88.0396 48.3653C88.0396 48.3024 88.0396 48.2395 88.0396 48.1767C88.0396 48.1138 88.0396 48.0511 88.0396 47.9883C88.0396 47.9256 88.0396 47.8629 88.0396 47.8002C88.0396 47.7375 88.0396 47.6749 88.0396 47.6123C88.0396 47.5497 88.0396 47.4872 88.0396 47.4247C88.0396 47.3622 88.0396 47.2997 88.0396 47.2373C88.0396 47.1748 88.0396 47.1125 88.0396 47.0501C88.0396 46.9878 88.0396 46.9255 88.0396 46.8632C88.0396 46.801 88.0396 46.7387 88.0396 46.6766C88.0396 46.6144 88.0396 46.5523 88.0396 46.4902C88.0396 46.4281 88.0396 46.366 88.0396 46.304C88.0396 46.242 88.0396 46.18 88.0396 46.1181C88.0396 46.0562 88.0396 45.9943 88.0396 45.9324C88.0396 45.8706 88.0396 45.8088 88.0396 45.747C88.0396 45.6853 88.0396 45.6236 88.0396 45.5619C88.0396 45.5002 88.0396 45.4386 88.0396 45.377C88.0396 45.3154 88.0396 45.2539 88.0396 45.1924C88.0396 45.1309 88.0396 45.0694 88.0396 45.008C88.0396 44.9466 88.0396 44.8852 88.0396 44.8239C88.0396 44.7625 88.0396 44.7012 88.0396 44.64C88.0396 44.5788 88.0396 44.5175 88.0396 44.4564C88.0396 44.3952 88.0396 44.3341 88.0396 44.273C88.0396 44.212 88.0396 44.1509 88.0396 44.09C88.0396 44.029 88.0396 43.968 88.0396 43.9071C88.0396 43.8462 88.0396 43.7854 88.0396 43.7246C88.0396 43.6638 88.0396 43.603 88.0396 43.5423C88.0396 43.4816 88.0396 43.4209 88.0396 43.3602C88.0396 43.2996 88.0396 43.239 88.0396 43.1785C88.0396 43.1179 88.0396 43.0574 88.0396 42.997C88.0396 42.9365 88.0396 42.8761 88.0396 42.8158C88.0396 42.7554 88.0396 42.6951 88.0396 42.6348C88.0396 42.5745 88.0396 42.5143 88.0396 42.4541C88.0396 42.3939 88.0396 42.3338 88.0396 42.2737C88.0396 42.2136 88.0396 42.1535 88.0396 42.0935C88.0396 42.0335 88.0396 41.9736 88.0396 41.9137C88.0396 41.8538 88.0396 41.7939 88.0396 41.7341C88.0396 41.6743 88.0396 41.6145 88.0396 41.5547C88.0396 41.495 88.0396 41.4353 88.0396 41.3757C88.0396 41.3161 88.0396 41.2565 88.0396 41.1969C88.0396 41.1374 88.0396 41.0779 88.0396 41.0184C88.0396 40.959 88.0396 40.8996 88.0396 40.8402C88.0396 40.7809 88.0396 40.7215 88.0396 40.6623C88.0396 40.603 88.0396 40.5438 88.0396 40.4846C88.0396 40.4255 88.0396 40.3663 88.0396 40.3073C88.0396 40.2482 88.0396 40.1891 88.0396 40.1302C88.0396 40.0712 88.0396 40.0122 88.0396 39.9534C88.0396 39.8945 88.0396 39.8356 88.0396 39.7768C88.0396 39.718 88.0396 39.6593 88.0396 39.6006C88.0396 39.5419 88.0396 39.4832 88.0396 39.4246C88.0396 39.366 88.0396 39.3075 88.0396 39.249C88.0396 39.1905 88.0396 39.132 88.0396 39.0736C88.0396 39.0152 88.0396 38.9568 88.0396 38.8985C88.0396 38.8402 88.0396 38.7819 88.0396 38.7237C88.0396 38.6655 88.0396 38.6073 88.0396 38.5492C88.0396 38.4911 88.0396 38.433 88.0396 38.375C88.0396 38.317 88.0396 38.259 88.0396 38.2011C88.0396 38.1432 88.0396 38.0853 88.0396 38.0275C88.0396 37.9697 88.0396 37.9119 88.0396 37.8542C88.0396 37.7964 88.0396 37.7388 88.0396 37.6811C88.0396 37.6235 88.0396 37.5659 88.0396 37.5084C88.0396 37.4509 88.0396 37.3934 88.0396 37.336C88.0396 37.2785 88.0396 37.2212 88.0396 37.1638C88.0396 37.1065 88.0396 37.0492 88.0396 36.992C88.0396 36.9348 88.0396 36.8776 88.0396 36.8205C88.0396 36.7633 88.0396 36.7062 88.0396 36.6492C88.0396 36.5922 88.0396 36.5352 88.0396 36.4783C88.0396 36.4214 88.0396 36.3645 88.0396 36.3077C88.0396 36.2508 88.0396 36.1941 88.0396 36.1374C88.0396 36.0806 88.0396 36.024 88.0396 35.9673C88.0396 35.9107 88.0396 35.8542 88.0396 35.7976C88.0396 35.7411 88.0396 35.6847 88.0396 35.6282C88.0396 35.5718 88.0396 35.5155 88.0396 35.4591C88.0396 35.4028 88.0396 35.3466 88.0396 35.2904C88.0396 35.2342 88.0396 35.178 88.0396 35.1219C88.0396 35.0658 88.0396 35.0097 88.0396 34.9537C88.0396 34.8977 88.0396 34.8418 88.0396 34.7859C88.0396 34.73 88.0396 34.6742 88.0396 34.6184C88.0396 34.5626 88.0396 34.5069 88.0396 34.4512C88.0396 34.3955 88.0396 34.3398 88.0396 34.2843C88.0396 34.2287 88.0396 34.1732 88.0396 34.1177C88.0396 34.0622 88.0396 34.0068 88.0396 33.9514C88.0396 33.8961 88.0396 33.8407 88.0396 33.7855C88.0396 33.7302 88.0396 33.675 88.0396 33.6199C88.0396 33.5647 88.0396 33.5096 88.0396 33.4546C88.0396 33.3995 88.0396 33.3445 88.0396 33.2896C88.0396 33.2346 88.0396 33.1797 88.0396 33.1249C88.0396 33.0701 88.0396 33.0153 88.0396 32.9606C88.0396 32.9059 88.0396 32.8512 88.0396 32.7966C88.0396 32.7419 88.0396 32.6874 88.0396 32.6329C88.0396 32.5784 88.0396 32.5239 88.0396 32.4695C88.0396 32.4151 88.0396 32.3608 88.0396 32.3065C88.0396 32.2522 88.0396 32.198 88.0396 32.1438C88.0396 32.0896 88.0396 32.0355 88.0396 31.9814C88.0396 31.9273 88.0396 31.8733 88.0396 31.8194C88.0396 31.7654 88.0396 31.7115 88.0396 31.6577C88.0396 31.6038 88.0396 31.55 88.0396 31.4963C88.0396 31.4425 88.0396 31.3889 88.0396 31.3352C88.0396 31.2816 88.0396 31.228 88.0396 31.1745C88.0396 31.121 88.0396 31.0676 88.0396 31.0142C88.0396 30.9608 88.0396 30.9074 88.0396 30.8541C88.0396 30.8008 88.0396 30.7476 88.0396 30.6944C88.0396 30.6412 88.0396 30.5881 88.0396 30.5351C88.0396 30.482 88.0396 30.429 88.0396 30.376C88.0396 30.3231 88.0396 30.2702 88.0396 30.2173C88.0396 30.1645 88.0396 30.1117 88.0396 30.059C88.0396 30.0063 88.0396 29.9536 88.0396 29.901C88.0396 29.8484 88.0396 29.7958 88.0396 29.7434C88.0396 29.6909 88.0396 29.6384 88.0396 29.586C88.0396 29.5337 88.0396 29.4813 88.0396 29.4291C88.0396 29.3768 88.0396 29.3246 88.0396 29.2725C88.0396 29.2203 88.0396 29.1682 88.0396 29.1162C88.0396 29.0641 88.0396 29.0122 88.0396 28.9603C88.0396 28.9083 88.0396 28.8565 88.0396 28.8047C88.0396 28.7529 88.0396 28.7011 88.0396 28.6494C88.0396 28.5978 88.0396 28.5461 88.0396 28.4946C88.0396 28.443 88.0396 28.3915 88.0396 28.34C88.0396 28.2886 88.0396 28.2372 88.0396 28.1859C88.0396 28.1345 88.0396 28.0833 88.0396 28.0321C88.0396 27.9808 88.0396 27.9297 88.0396 27.8786C88.0396 27.8275 88.0396 27.7765 88.0396 27.7255C88.0396 27.6745 88.0396 27.6236 88.0396 27.5727C88.0396 27.5219 88.0396 27.4711 88.0396 27.4204C88.0396 27.3696 88.0396 27.3189 88.0396 27.2683C88.0396 27.2177 88.0396 27.1671 88.0396 27.1167C88.0396 27.0662 88.0396 27.0157 88.0396 26.9653C88.0396 26.915 88.0396 26.8646 88.0396 26.8144C88.0396 26.7641 88.0396 26.7139 88.0396 26.6638C88.0396 26.6137 88.0396 26.5636 88.0396 26.5136C88.0396 26.4636 88.0396 26.4136 88.0396 26.3637C88.0396 26.3138 88.0396 26.264 88.0396 26.2142C88.0396 26.1645 88.0396 26.1147 88.0396 26.0651C88.0396 26.0155 88.0396 25.9659 88.0396 25.9163C88.0396 25.8668 88.0396 25.8174 88.0396 25.768C88.0396 25.7185 88.0396 25.6692 88.0396 25.6199C88.0396 25.5707 88.0396 25.5214 88.0396 25.4723C88.0396 25.4231 88.0396 25.374 88.0396 25.325C88.0396 25.276 88.0396 25.227 88.0396 25.1781C88.0396 25.1292 88.0396 25.0803 88.0396 25.0316C88.0396 24.9828 88.0396 24.9341 88.0396 24.8854C88.0396 24.8367 88.0396 24.7882 88.0396 24.7396C88.0396 24.6911 88.0396 24.6426 88.0396 24.5942C88.0396 24.5458 88.0396 24.4975 88.0396 24.4492C88.0396 24.4009 88.0396 24.3527 88.0396 24.3045C88.0396 24.2564 88.0396 24.2083 88.0396 24.1603C88.0396 24.1122 88.0396 24.0643 88.0396 24.0164C88.0396 23.9685 88.0396 23.9206 88.0396 23.8729C88.0396 23.8251 88.0396 23.7774 88.0396 23.7297C88.0396 23.6821 88.0396 23.6345 88.0396 23.587C88.0396 23.5395 88.0396 23.492 88.0396 23.4446C88.0396 23.3972 88.0396 23.3499 88.0396 23.3027C88.0396 23.2554 88.0396 23.2082 88.0396 23.1611C88.0396 23.1139 88.0396 23.0669 88.0396 23.0199C88.0396 22.9729 88.0396 22.9259 88.0396 22.8791C88.0396 22.8322 88.0396 22.7854 88.0396 22.7386C88.0396 22.6919 88.0396 22.6452 88.0396 22.5986C88.0396 22.552 88.0396 22.5054 88.0396 22.459C88.0396 22.4125 88.0396 22.3661 88.0396 22.3197C88.0396 22.2733 88.0396 22.2271 88.0396 22.1808C88.0396 22.1346 88.0396 22.0885 88.0396 22.0424C88.0396 21.9963 88.0396 21.9503 88.0396 21.9043C88.0396 21.8584 88.0396 21.8125 88.0396 21.7666C88.0396 21.7208 88.0396 21.6751 88.0396 21.6294C88.0396 21.5837 88.0396 21.538 88.0396 21.4925C88.0396 21.4469 88.0396 21.4014 88.0396 21.356C88.0396 21.3106 88.0396 21.2652 88.0396 21.2199C88.0396 21.1746 88.0396 21.1294 88.0396 21.0842C88.0396 21.0391 88.0396 20.994 88.0396 20.949C88.0396 20.9039 88.0396 20.859 88.0396 20.8141C88.0396 20.7692 88.0396 20.7244 88.0396 20.6796C88.0396 20.6349 88.0396 20.5902 88.0396 20.5455C88.0396 20.5009 88.0396 20.4564 88.0396 20.4119C88.0396 20.3674 88.0396 20.323 88.0396 20.2786C88.0396 20.2343 88.0396 20.19 88.0396 20.1458C88.0396 20.1016 88.0396 20.0574 88.0396 20.0134C88.0396 19.9693 88.0396 19.9253 88.0396 19.8813C88.0396 19.8374 88.0396 19.7935 88.0396 19.7497C88.0396 19.7059 88.0396 19.6622 88.0396 19.6185C88.0396 19.5748 88.0396 19.5312 88.0396 19.4877C88.0396 19.4442 88.0396 19.4007 88.0396 19.3573C88.0396 19.3139 88.0396 19.2706 88.0396 19.2274C88.0396 19.1841 88.0396 19.1409 88.0396 19.0978C88.0396 19.0547 88.0396 19.0116 88.0396 18.9687C88.0396 18.9257 88.0396 18.8828 88.0396 18.84C88.0396 18.7971 88.0396 18.7544 88.0396 18.7117C88.0396 18.669 88.0396 18.6263 88.0396 18.5838C88.0396 18.5412 88.0396 18.4987 88.0396 18.4563C88.0396 18.4139 88.0396 18.3716 88.0396 18.3293C88.0396 18.287 88.0396 18.2448 88.0396 18.2027C88.0396 18.1605 88.0396 18.1185 88.0396 18.0765C88.0396 18.0345 88.0396 17.9926 88.0396 17.9507C88.0396 17.9089 88.0396 17.8671 88.0396 17.8254C88.0396 17.7837 88.0396 17.742 88.0396 17.7004C88.0396 17.6589 88.0396 17.6174 88.0396 17.576C88.0396 17.5345 88.0396 17.4932 88.0396 17.4519C88.0396 17.4106 88.0396 17.3694 88.0396 17.3283C88.0396 17.2871 88.0396 17.2461 88.0396 17.2051C88.0396 17.1641 88.0396 17.1231 88.0396 17.0823C88.0396 17.0414 88.0396 17.0007 88.0396 16.96C88.0396 16.9192 88.0396 16.8786 88.0396 16.838C88.0396 16.7975 88.0396 16.757 88.0396 16.7166C88.0396 16.6762 88.0396 16.6358 88.0396 16.5955C88.0396 16.5553 88.0396 16.5151 88.0396 16.4749C88.0396 16.4348 88.0396 16.3948 88.0396 16.3548C88.0396 16.3148 88.0396 16.2749 88.0396 16.235C88.0396 16.1952 88.0396 16.1555 88.0396 16.1158C88.0396 16.0761 88.0396 16.0365 88.0396 15.9969C88.0396 15.9574 88.0396 15.9179 88.0396 15.8785C88.0396 15.8391 88.0396 15.7998 88.0396 15.7605C88.0396 15.7213 88.0396 15.6821 88.0396 15.643C88.0396 15.6039 88.0396 15.5649 88.0396 15.5259C88.0396 15.487 88.0396 15.4481 88.0396 15.4093C88.0396 15.3705 88.0396 15.3318 88.0396 15.2931C88.0396 15.2545 88.0396 15.2159 88.0396 15.1774C88.0396 15.1389 88.0396 15.1004 88.0396 15.0621C88.0396 15.0237 88.0396 14.9854 88.0396 14.9472C88.0396 14.909 88.0396 14.8709 88.0396 14.8328C88.0396 14.7948 88.0396 14.7568 88.0396 14.7189C88.0396 14.681 88.0396 14.6432 88.0396 14.6054C88.0396 14.5676 88.0396 14.53 88.0396 14.4924C88.0396 14.4548 88.0396 14.4172 88.0396 14.3798C88.0396 14.3423 88.0396 14.3049 88.0396 14.2676C88.0396 14.2303 88.0396 14.1931 88.0396 14.156C88.0396 14.1188 88.0396 14.0817 88.0396 14.0447C88.0396 14.0077 88.0396 13.9708 88.0396 13.934C88.0396 13.8971 88.0396 13.8604 88.0396 13.8237C88.0396 13.787 88.0396 13.7504 88.0396 13.7138C88.0396 13.6773 88.0396 13.6408 88.0396 13.6044C88.0396 13.5681 88.0396 13.5317 88.0396 13.4955C88.0396 13.4593 88.0396 13.4231 88.0396 13.3871C88.0396 13.351 88.0396 13.315 88.0396 13.2791C88.0396 13.2431 88.0396 13.2073 88.0396 13.1715C88.0396 13.1358 88.0396 13.1001 88.0396 13.0644C88.0396 13.0288 88.0396 12.9933 88.0396 12.9578C88.0396 12.9224 88.0396 12.887 88.0396 12.8517C88.0396 12.8164 88.0396 12.7812 88.0396 12.746C88.0396 12.7109 88.0396 12.6758 88.0396 12.6408C88.0396 12.6059 88.0396 12.5709 88.0396 12.5361C88.0396 12.5013 88.0396 12.4665 88.0396 12.4319C88.0396 12.3972 88.0396 12.3626 88.0396 12.3281C88.0396 12.2936 88.0396 12.2591 88.0396 12.2248C88.0396 12.1904 88.0396 12.1561 88.0396 12.1219C88.0396 12.0877 88.0396 12.0536 88.0396 12.0196C88.0396 11.9855 88.0396 11.9515 88.0396 11.9177C88.0396 11.8838 88.0396 11.85 88.0396 11.8163C88.0396 11.7825 88.0396 11.7489 88.0396 11.7153C88.0396 11.6818 88.0396 11.6483 88.0396 11.6149C88.0396 11.5815 88.0396 11.5481 88.0396 11.5149C88.0396 11.4816 88.0396 11.4485 88.0396 11.4154C88.0396 11.3823 88.0396 11.3493 88.0396 11.3164C88.0396 11.2835 88.0396 11.2506 88.0396 11.2179C88.0396 11.1851 88.0396 11.1524 88.0396 11.1198C88.0396 11.0872 88.0396 11.0547 88.0396 11.0222C88.0396 10.9898 88.0396 10.9574 88.0396 10.9252C88.0396 10.8929 88.0396 10.8607 88.0396 10.8286C88.0396 10.7965 88.0396 10.7644 88.0396 10.7325C88.0396 10.7005 88.0396 10.6687 88.0396 10.6369C88.0396 10.6051 88.0396 10.5734 88.0396 10.5417C88.0396 10.5101 88.0396 10.4786 88.0396 10.4471C88.0396 10.4156 88.0396 10.3843 88.0396 10.353C88.0396 10.3217 88.0396 10.2905 88.0396 10.2593C88.0396 10.2282 88.0396 10.1971 88.0396 10.1662C88.0396 10.1352 88.0396 10.1043 88.0396 10.0735C88.0396 10.0427 88.0396 10.012 88.0396 9.98134C88.0396 9.9507 88.0396 9.92015 88.0396 9.88967C88.0396 9.8592 88.0396 9.82881 88.0396 9.7985C88.0396 9.7682 88.0396 9.73797 88.0396 9.70783C88.0396 9.67769 88.0396 9.64763 88.0396 9.61766C88.0396 9.58768 88.0396 9.55779 88.0396 9.52798C88.0396 9.49818 88.0396 9.46845 88.0396 9.43881C88.0396 9.40917 88.0396 9.37961 88.0396 9.35014C88.0396 9.32067 88.0396 9.29128 88.0396 9.26198C88.0396 9.23267 88.0396 9.20345 88.0396 9.17431C88.0396 9.14518 88.0396 9.11613 88.0396 9.08716C88.0396 9.05819 88.0396 9.02931 88.0396 9.00051C88.0396 8.97171 88.0396 8.94299 88.0396 8.91436C88.0396 8.88573 88.0396 8.85719 88.0396 8.82873C88.0396 8.80027 88.0396 8.77189 88.0396 8.7436C88.0396 8.71531 88.0396 8.68711 88.0396 8.65899C88.0396 8.63087 88.0396 8.60283 88.0396 8.57488C88.0396 8.54693 88.0396 8.51907 88.0396 8.49129C88.0396 8.46351 88.0396 8.43581 88.0396 8.40821C88.0396 8.3806 88.0396 8.35308 88.0396 8.32564C88.0396 8.2982 88.0396 8.27085 88.0396 8.24359C88.0396 8.21633 88.0396 8.18915 88.0396 8.16205C88.0396 8.13496 88.0396 8.10796 88.0396 8.08104C88.0396 8.05412 88.0396 8.02728 88.0396 8.00054C88.0396 7.97379 88.0396 7.94713 88.0396 7.92055C88.0396 7.89398 88.0396 7.86749 88.0396 7.84109C88.0396 7.81469 88.0396 7.78838 88.0396 7.76215C88.0396 7.73592 88.0396 7.70978 88.0396 7.68373C88.0396 7.65768 88.0396 7.63171 88.0396 7.60584C88.0396 7.57996 88.0396 7.55417 88.0396 7.52846C88.0396 7.50276 88.0396 7.47714 88.0396 7.45162C88.0396 7.42609 88.0396 7.40065 88.0396 7.37529C88.0396 7.34994 88.0396 7.32467 88.0396 7.2995C88.0396 7.27432 88.0396 7.24923 88.0396 7.22423C88.0396 7.19923 88.0396 7.17431 88.0396 7.14949C88.0396 7.12467 88.0396 7.09993 88.0396 7.07528C88.0396 7.05063 88.0396 7.02607 88.0396 7.0016C88.0396 6.97713 88.0396 6.95275 88.0396 6.92845C88.0396 6.90416 88.0396 6.87995 88.0396 6.85584C88.0396 6.83172 88.0396 6.80769 88.0396 6.78376C88.0396 6.75982 88.0396 6.73597 88.0396 6.71221C88.0396 6.68845 88.0396 6.66478 88.0396 6.6412C88.0396 6.61762 88.0396 6.59413 88.0396 6.57072C88.0396 6.54732 88.0396 6.52401 88.0396 6.50078C88.0396 6.47756 88.0396 6.45443 88.0396 6.43139C88.0396 6.40834 88.0396 6.38539 88.0396 6.36253C88.0396 6.33966 88.0396 6.31689 88.0396 6.29421C88.0396 6.27152 88.0396 6.24893 88.0396 6.22643C88.0396 6.20392 88.0396 6.18151 88.0396 6.15919C88.0396 6.13687 88.0396 6.11464 88.0396 6.0925C88.0396 6.07036 88.0396 6.04831 88.0396 6.02635C88.0396 6.00439 88.0396 5.98252 88.0396 5.96075C88.0396 5.93897 88.0396 5.91728 88.0396 5.89569C88.0396 5.87409 88.0396 5.85259 88.0396 5.83118C88.0396 5.80977 88.0396 5.78845 88.0396 5.76722C88.0396 5.74599 88.0396 5.72485 88.0396 5.7038C88.0396 5.68276 88.0396 5.6618 88.0396 5.64094C88.0396 5.62008 88.0396 5.59931 88.0396 5.57863C88.0396 5.55795 88.0396 5.53736 88.0396 5.51687C88.0396 5.49637 88.0396 5.47597 88.0396 5.45566C88.0396 5.43535 88.0396 5.41513 88.0396 5.39501C88.0396 5.37488 88.0396 5.35485 88.0396 5.33491C88.0396 5.31497 88.0396 5.29512 88.0396 5.27537C88.0396 5.25562 88.0396 5.23595 88.0396 5.21638C88.0396 5.19682 88.0396 5.17734 88.0396 5.15796C88.0396 5.13858 88.0396 5.11929 88.0396 5.10009C88.0396 5.08089 88.0396 5.06179 88.0396 5.04278C88.0396 5.02377 88.0396 5.00486 88.0396 4.98603C88.0396 4.96721 88.0396 4.94848 88.0396 4.92985C88.0396 4.91121 88.0396 4.89267 88.0396 4.87423C88.0396 4.85578 88.0396 4.83742 88.0396 4.81917C88.0396 4.80091 88.0396 4.78274 88.0396 4.76467C88.0396 4.7466 88.0396 4.72862 88.0396 4.71074C88.0396 4.69286 88.0396 4.67507 88.0396 4.65738C88.0396 4.63969 88.0396 4.62209 88.0396 4.60459C88.0396 4.58708 88.0396 4.56967 88.0396 4.55236C88.0396 4.53505 88.0396 4.51783 88.0396 4.5007C88.0396 4.48358 88.0396 4.46655 88.0396 4.44962C88.0396 4.43269 88.0396 4.41585 88.0396 4.3991C88.0396 4.38236 88.0396 4.36571 88.0396 4.34916C88.0396 4.33261 88.0396 4.31616 88.0396 4.29979C88.0396 4.28343 88.0396 4.26717 88.0396 4.251C88.0396 4.23483 88.0396 4.21876 88.0396 4.20278C88.0396 4.18681 88.0396 4.17093 88.0396 4.15514C88.0396 4.13936 88.0396 4.12367 88.0396 4.10808C88.0396 4.09249 88.0396 4.07699 88.0396 4.06159C88.0396 4.04619 88.0396 4.03089 88.0396 4.01568C88.0396 4.00048 88.0396 3.98537 88.0396 3.97036C88.0396 3.95535 88.0396 3.94043 88.0396 3.92561C88.0396 3.9108 88.0396 3.89607 88.0396 3.88145C88.0396 3.86683 88.0396 3.8523 88.0396 3.83787C88.0396 3.82344 88.0396 3.80911 88.0396 3.79488C88.0396 3.78064 88.0396 3.76651 88.0396 3.75247C88.0396 3.73843 88.0396 3.72449 88.0396 3.71064C88.0396 3.6968 88.0396 3.68305 88.0396 3.66941C88.0396 3.65576 88.0396 3.64221 88.0396 3.62876C88.0396 3.61531 88.0396 3.60195 88.0396 3.5887C88.0396 3.57544 88.0396 3.56229 88.0396 3.54923C88.0396 3.53617 88.0396 3.52321 88.0396 3.51035C88.0396 3.49749 88.0396 3.48473 88.0396 3.47207C88.0396 3.4594 88.0396 3.44684 88.0396 3.43437C88.0396 3.42191 88.0396 3.40954 88.0396 3.39727C88.0396 3.38501 88.0396 3.37284 88.0396 3.36077C88.0396 3.3487 88.0396 3.33673 88.0396 3.32486C88.0396 3.31299 88.0396 3.30122 88.0396 3.28955C88.0396 3.27788 88.0396 3.26631 88.0396 3.25484C88.0396 3.24337 88.0396 3.23199 88.0396 3.22072C88.0396 3.20945 88.0396 3.19828 88.0396 3.18721C88.0396 3.17614 88.0396 3.16516 88.0396 3.15429C88.0396 3.14342 88.0396 3.13265 88.0396 3.12198C88.0396 3.11131 88.0396 3.10074 88.0396 3.09027C88.0396 3.0798 88.0396 3.06944 88.0396 3.05917C88.0396 3.0489 88.0396 3.03873 88.0396 3.02867C88.0396 3.0186 88.0396 3.00864 88.0396 2.99877C88.0396 2.98891 88.0396 2.97914 88.0396 2.96948C88.0396 2.95982 88.0396 2.95026 88.0396 2.9408C88.0396 2.93134 88.0396 2.92199 88.0396 2.91273C88.0396 2.90347 88.0396 2.89432 88.0396 2.88527C88.0396 2.87622 88.0396 2.86727 88.0396 2.85842C88.0396 2.84957 88.0396 2.84082 88.0396 2.83218C88.0396 2.82353 88.0396 2.81499 88.0396 2.80655C88.0396 2.79811 88.0396 2.78977 88.0396 2.78153C88.0396 2.7733 88.0396 2.76517 88.0396 2.75713C88.0396 2.7491 88.0396 2.74118 88.0396 2.73335C88.0396 2.72553 88.0396 2.7178 88.0396 2.71018C88.0396 2.70256 88.0396 2.69505 88.0396 2.68763C88.0396 2.68022 88.0396 2.67291 88.0396 2.6657C88.0396 2.65849 88.0396 2.65139 88.0396 2.64439C88.0396 2.63739 88.0396 2.63049 88.0396 2.6237C88.0396 2.6169 88.0396 2.61021 88.0396 2.60362C88.0396 2.59704 88.0396 2.59055 88.0396 2.58418C88.0396 2.5778 88.0396 2.57152 88.0396 2.56535C88.0396 2.55918 88.0396 2.55311 88.0396 2.54715C88.0396 2.54119 88.0396 2.53533 88.0396 2.52957C88.0396 2.52382 88.0396 2.51817 88.0396 2.51262C88.0396 2.50708 88.0396 2.50164 88.0396 2.4963C88.0396 2.49096 88.0396 2.48573 88.0396 2.48061C88.0396 2.47548 88.0396 2.47046 88.0396 2.46554C88.0396 2.46062 88.0396 2.45581 88.0396 2.45111C88.0396 2.4464 88.0396 2.4418 88.0396 2.4373C88.0396 2.43281 88.0396 2.42841 88.0396 2.42413C88.0396 2.41984 88.0396 2.41566 88.0396 2.41159C88.0396 2.40752 88.0396 2.40355 88.0396 2.39969C88.0396 2.39582 88.0396 2.39207 88.0396 2.38842C88.0396 2.38476 88.0396 2.38122 88.0396 2.37778C88.0396 2.37434 88.0396 2.37101 88.0396 2.36778C88.0396 2.36456 88.0396 2.36144 88.0396 2.35842C88.0396 2.35541 88.0396 2.3525 88.0396 2.3497C88.0396 2.3469 88.0396 2.34421 88.0396 2.34162C88.0396 2.33904 88.0396 2.33656 88.0396 2.33418C88.0396 2.33181 88.0396 2.32955 88.0396 2.32739C88.0396 2.32523 88.0396 2.32318 88.0396 2.32123C88.0396 2.31929 88.0396 2.31745 88.0396 2.31572C88.0396 2.31399 88.0396 2.31237 88.0396 2.31085C88.0396 2.30934 88.0396 2.30793 88.0396 2.30663C88.0396 2.30533 88.0396 2.30414 88.0396 2.30306C88.0396 2.30197 88.0396 2.301 88.0396 2.30013C88.0396 2.29926 88.0396 2.29851 88.0396 2.29785C88.0396 2.2972 88.0396 2.29666 88.0396 2.29623C88.0396 2.29579 88.0396 2.29547 88.0396 2.29525C88.0396 2.29503 88.0396 2.29492 86.0234 2.29492C84.0073 2.29492 84.0073 2.29503 84.0073 2.29525C84.0073 2.29547 84.0073 2.29579 84.0073 2.29623C84.0073 2.29666 84.0073 2.2972 84.0073 2.29785C84.0073 2.29851 84.0073 2.29926 84.0073 2.30013C84.0073 2.301 84.0073 2.30197 84.0073 2.30306C84.0073 2.30414 84.0073 2.30533 84.0073 2.30663C84.0073 2.30793 84.0073 2.30934 84.0073 2.31085C84.0073 2.31237 84.0073 2.31399 84.0073 2.31572C84.0073 2.31745 84.0073 2.31929 84.0073 2.32123C84.0073 2.32318 84.0073 2.32523 84.0073 2.32739C84.0073 2.32955 84.0073 2.33181 84.0073 2.33418C84.0073 2.33656 84.0073 2.33904 84.0073 2.34162C84.0073 2.34421 84.0073 2.3469 84.0073 2.3497C84.0073 2.3525 84.0073 2.35541 84.0073 2.35842C84.0073 2.36144 84.0073 2.36456 84.0073 2.36778C84.0073 2.37101 84.0073 2.37434 84.0073 2.37778C84.0073 2.38122 84.0073 2.38476 84.0073 2.38842C84.0073 2.39207 84.0073 2.39582 84.0073 2.39969C84.0073 2.40355 84.0073 2.40752 84.0073 2.41159C84.0073 2.41566 84.0073 2.41984 84.0073 2.42413C84.0073 2.42841 84.0073 2.43281 84.0073 2.4373C84.0073 2.4418 84.0073 2.4464 84.0073 2.45111C84.0073 2.45581 84.0073 2.46062 84.0073 2.46554C84.0073 2.47046 84.0073 2.47548 84.0073 2.48061C84.0073 2.48573 84.0073 2.49096 84.0073 2.4963C84.0073 2.50164 84.0073 2.50708 84.0073 2.51262C84.0073 2.51817 84.0073 2.52382 84.0073 2.52957C84.0073 2.53533 84.0073 2.54119 84.0073 2.54715C84.0073 2.55311 84.0073 2.55918 84.0073 2.56535C84.0073 2.57152 84.0073 2.5778 84.0073 2.58418C84.0073 2.59055 84.0073 2.59704 84.0073 2.60362C84.0073 2.61021 84.0073 2.6169 84.0073 2.6237C84.0073 2.63049 84.0073 2.63739 84.0073 2.64439C84.0073 2.65139 84.0073 2.65849 84.0073 2.6657C84.0073 2.67291 84.0073 2.68022 84.0073 2.68763C84.0073 2.69505 84.0073 2.70256 84.0073 2.71018C84.0073 2.7178 84.0073 2.72553 84.0073 2.73335C84.0073 2.74118 84.0073 2.7491 84.0073 2.75713C84.0073 2.76517 84.0073 2.7733 84.0073 2.78153C84.0073 2.78977 84.0073 2.79811 84.0073 2.80655C84.0073 2.81499 84.0073 2.82353 84.0073 2.83218C84.0073 2.84082 84.0073 2.84957 84.0073 2.85842C84.0073 2.86727 84.0073 2.87622 84.0073 2.88527C84.0073 2.89432 84.0073 2.90347 84.0073 2.91273C84.0073 2.92199 84.0073 2.93134 84.0073 2.9408C84.0073 2.95026 84.0073 2.95982 84.0073 2.96948C84.0073 2.97914 84.0073 2.98891 84.0073 2.99877C84.0073 3.00864 84.0073 3.0186 84.0073 3.02867C84.0073 3.03873 84.0073 3.0489 84.0073 3.05917C84.0073 3.06944 84.0073 3.0798 84.0073 3.09027C84.0073 3.10074 84.0073 3.11131 84.0073 3.12198C84.0073 3.13265 84.0073 3.14342 84.0073 3.15429C84.0073 3.16516 84.0073 3.17614 84.0073 3.18721C84.0073 3.19828 84.0073 3.20945 84.0073 3.22072C84.0073 3.23199 84.0073 3.24337 84.0073 3.25484C84.0073 3.26631 84.0073 3.27788 84.0073 3.28955C84.0073 3.30122 84.0073 3.31299 84.0073 3.32486C84.0073 3.33673 84.0073 3.3487 84.0073 3.36077C84.0073 3.37284 84.0073 3.38501 84.0073 3.39727C84.0073 3.40954 84.0073 3.42191 84.0073 3.43437C84.0073 3.44684 84.0073 3.4594 84.0073 3.47207C84.0073 3.48473 84.0073 3.49749 84.0073 3.51035C84.0073 3.52321 84.0073 3.53617 84.0073 3.54923C84.0073 3.56229 84.0073 3.57544 84.0073 3.5887C84.0073 3.60195 84.0073 3.61531 84.0073 3.62876C84.0073 3.64221 84.0073 3.65576 84.0073 3.66941C84.0073 3.68305 84.0073 3.6968 84.0073 3.71064C84.0073 3.72449 84.0073 3.73843 84.0073 3.75247C84.0073 3.76651 84.0073 3.78064 84.0073 3.79488C84.0073 3.80911 84.0073 3.82344 84.0073 3.83787C84.0073 3.8523 84.0073 3.86683 84.0073 3.88145C84.0073 3.89607 84.0073 3.9108 84.0073 3.92561C84.0073 3.94043 84.0073 3.95535 84.0073 3.97036C84.0073 3.98537 84.0073 4.00048 84.0073 4.01568C84.0073 4.03089 84.0073 4.04619 84.0073 4.06159C84.0073 4.07699 84.0073 4.09249 84.0073 4.10808C84.0073 4.12367 84.0073 4.13936 84.0073 4.15514C84.0073 4.17093 84.0073 4.18681 84.0073 4.20278C84.0073 4.21876 84.0073 4.23483 84.0073 4.251C84.0073 4.26717 84.0073 4.28343 84.0073 4.29979C84.0073 4.31616 84.0073 4.33261 84.0073 4.34916C84.0073 4.36571 84.0073 4.38236 84.0073 4.3991C84.0073 4.41585 84.0073 4.43269 84.0073 4.44962C84.0073 4.46655 84.0073 4.48358 84.0073 4.5007C84.0073 4.51783 84.0073 4.53505 84.0073 4.55236C84.0073 4.56967 84.0073 4.58708 84.0073 4.60459C84.0073 4.62209 84.0073 4.63969 84.0073 4.65738C84.0073 4.67507 84.0073 4.69286 84.0073 4.71074C84.0073 4.72862 84.0073 4.7466 84.0073 4.76467C84.0073 4.78274 84.0073 4.80091 84.0073 4.81917C84.0073 4.83742 84.0073 4.85578 84.0073 4.87423C84.0073 4.89267 84.0073 4.91121 84.0073 4.92985C84.0073 4.94848 84.0073 4.96721 84.0073 4.98603C84.0073 5.00486 84.0073 5.02377 84.0073 5.04278C84.0073 5.06179 84.0073 5.08089 84.0073 5.10009C84.0073 5.11929 84.0073 5.13858 84.0073 5.15796C84.0073 5.17734 84.0073 5.19682 84.0073 5.21638C84.0073 5.23595 84.0073 5.25562 84.0073 5.27537C84.0073 5.29512 84.0073 5.31497 84.0073 5.33491C84.0073 5.35485 84.0073 5.37488 84.0073 5.39501C84.0073 5.41513 84.0073 5.43535 84.0073 5.45566C84.0073 5.47597 84.0073 5.49637 84.0073 5.51687C84.0073 5.53736 84.0073 5.55795 84.0073 5.57863C84.0073 5.59931 84.0073 5.62008 84.0073 5.64094C84.0073 5.6618 84.0073 5.68276 84.0073 5.7038C84.0073 5.72485 84.0073 5.74599 84.0073 5.76722C84.0073 5.78845 84.0073 5.80977 84.0073 5.83118C84.0073 5.85259 84.0073 5.87409 84.0073 5.89569C84.0073 5.91728 84.0073 5.93897 84.0073 5.96075C84.0073 5.98252 84.0073 6.00439 84.0073 6.02635C84.0073 6.04831 84.0073 6.07036 84.0073 6.0925C84.0073 6.11464 84.0073 6.13687 84.0073 6.15919C84.0073 6.18151 84.0073 6.20392 84.0073 6.22643C84.0073 6.24893 84.0073 6.27152 84.0073 6.29421C84.0073 6.31689 84.0073 6.33966 84.0073 6.36253C84.0073 6.38539 84.0073 6.40834 84.0073 6.43139C84.0073 6.45443 84.0073 6.47756 84.0073 6.50078C84.0073 6.52401 84.0073 6.54732 84.0073 6.57072C84.0073 6.59413 84.0073 6.61762 84.0073 6.6412C84.0073 6.66478 84.0073 6.68845 84.0073 6.71221C84.0073 6.73597 84.0073 6.75982 84.0073 6.78376C84.0073 6.80769 84.0073 6.83172 84.0073 6.85584C84.0073 6.87995 84.0073 6.90416 84.0073 6.92845C84.0073 6.95275 84.0073 6.97713 84.0073 7.0016C84.0073 7.02607 84.0073 7.05063 84.0073 7.07528C84.0073 7.09993 84.0073 7.12467 84.0073 7.14949C84.0073 7.17431 84.0073 7.19923 84.0073 7.22423C84.0073 7.24923 84.0073 7.27432 84.0073 7.2995C84.0073 7.32467 84.0073 7.34994 84.0073 7.37529C84.0073 7.40065 84.0073 7.42609 84.0073 7.45162C84.0073 7.47714 84.0073 7.50276 84.0073 7.52846C84.0073 7.55417 84.0073 7.57996 84.0073 7.60584C84.0073 7.63171 84.0073 7.65768 84.0073 7.68373C84.0073 7.70978 84.0073 7.73592 84.0073 7.76215C84.0073 7.78838 84.0073 7.81469 84.0073 7.84109C84.0073 7.86749 84.0073 7.89398 84.0073 7.92055C84.0073 7.94713 84.0073 7.97379 84.0073 8.00054C84.0073 8.02728 84.0073 8.05412 84.0073 8.08104C84.0073 8.10796 84.0073 8.13496 84.0073 8.16205C84.0073 8.18915 84.0073 8.21633 84.0073 8.24359C84.0073 8.27085 84.0073 8.2982 84.0073 8.32564C84.0073 8.35308 84.0073 8.3806 84.0073 8.40821C84.0073 8.43581 84.0073 8.46351 84.0073 8.49129C84.0073 8.51907 84.0073 8.54693 84.0073 8.57488C84.0073 8.60283 84.0073 8.63087 84.0073 8.65899C84.0073 8.68711 84.0073 8.71531 84.0073 8.7436C84.0073 8.77189 84.0073 8.80027 84.0073 8.82873C84.0073 8.85719 84.0073 8.88573 84.0073 8.91436C84.0073 8.94299 84.0073 8.97171 84.0073 9.00051C84.0073 9.02931 84.0073 9.05819 84.0073 9.08716C84.0073 9.11613 84.0073 9.14518 84.0073 9.17431C84.0073 9.20345 84.0073 9.23267 84.0073 9.26198C84.0073 9.29128 84.0073 9.32067 84.0073 9.35014C84.0073 9.37961 84.0073 9.40917 84.0073 9.43881C84.0073 9.46845 84.0073 9.49818 84.0073 9.52798C84.0073 9.55779 84.0073 9.58768 84.0073 9.61766C84.0073 9.64763 84.0073 9.67769 84.0073 9.70783C84.0073 9.73797 84.0073 9.7682 84.0073 9.7985C84.0073 9.82881 84.0073 9.8592 84.0073 9.88967C84.0073 9.92015 84.0073 9.9507 84.0073 9.98134C84.0073 10.012 84.0073 10.0427 84.0073 10.0735C84.0073 10.1043 84.0073 10.1352 84.0073 10.1662C84.0073 10.1971 84.0073 10.2282 84.0073 10.2593C84.0073 10.2905 84.0073 10.3217 84.0073 10.353C84.0073 10.3843 84.0073 10.4156 84.0073 10.4471C84.0073 10.4786 84.0073 10.5101 84.0073 10.5417C84.0073 10.5734 84.0073 10.6051 84.0073 10.6369C84.0073 10.6687 84.0073 10.7005 84.0073 10.7325C84.0073 10.7644 84.0073 10.7965 84.0073 10.8286C84.0073 10.8607 84.0073 10.8929 84.0073 10.9252C84.0073 10.9574 84.0073 10.9898 84.0073 11.0222C84.0073 11.0547 84.0073 11.0872 84.0073 11.1198C84.0073 11.1524 84.0073 11.1851 84.0073 11.2179C84.0073 11.2506 84.0073 11.2835 84.0073 11.3164C84.0073 11.3493 84.0073 11.3823 84.0073 11.4154C84.0073 11.4485 84.0073 11.4816 84.0073 11.5149C84.0073 11.5481 84.0073 11.5815 84.0073 11.6149C84.0073 11.6483 84.0073 11.6818 84.0073 11.7153C84.0073 11.7489 84.0073 11.7825 84.0073 11.8163C84.0073 11.85 84.0073 11.8838 84.0073 11.9177C84.0073 11.9515 84.0073 11.9855 84.0073 12.0196C84.0073 12.0536 84.0073 12.0877 84.0073 12.1219C84.0073 12.1561 84.0073 12.1904 84.0073 12.2248C84.0073 12.2591 84.0073 12.2936 84.0073 12.3281C84.0073 12.3626 84.0073 12.3972 84.0073 12.4319C84.0073 12.4665 84.0073 12.5013 84.0073 12.5361C84.0073 12.5709 84.0073 12.6059 84.0073 12.6408C84.0073 12.6758 84.0073 12.7109 84.0073 12.746C84.0073 12.7812 84.0073 12.8164 84.0073 12.8517C84.0073 12.887 84.0073 12.9224 84.0073 12.9578C84.0073 12.9933 84.0073 13.0288 84.0073 13.0644C84.0073 13.1001 84.0073 13.1358 84.0073 13.1715C84.0073 13.2073 84.0073 13.2431 84.0073 13.2791C84.0073 13.315 84.0073 13.351 84.0073 13.3871C84.0073 13.4231 84.0073 13.4593 84.0073 13.4955C84.0073 13.5317 84.0073 13.5681 84.0073 13.6044C84.0073 13.6408 84.0073 13.6773 84.0073 13.7138C84.0073 13.7504 84.0073 13.787 84.0073 13.8237C84.0073 13.8604 84.0073 13.8971 84.0073 13.934C84.0073 13.9708 84.0073 14.0077 84.0073 14.0447C84.0073 14.0817 84.0073 14.1188 84.0073 14.156C84.0073 14.1931 84.0073 14.2303 84.0073 14.2676C84.0073 14.3049 84.0073 14.3423 84.0073 14.3798C84.0073 14.4172 84.0073 14.4548 84.0073 14.4924C84.0073 14.53 84.0073 14.5676 84.0073 14.6054C84.0073 14.6432 84.0073 14.681 84.0073 14.7189C84.0073 14.7568 84.0073 14.7948 84.0073 14.8328C84.0073 14.8709 84.0073 14.909 84.0073 14.9472C84.0073 14.9854 84.0073 15.0237 84.0073 15.0621C84.0073 15.1004 84.0073 15.1389 84.0073 15.1774C84.0073 15.2159 84.0073 15.2545 84.0073 15.2931C84.0073 15.3318 84.0073 15.3705 84.0073 15.4093C84.0073 15.4481 84.0073 15.487 84.0073 15.5259C84.0073 15.5649 84.0073 15.6039 84.0073 15.643C84.0073 15.6821 84.0073 15.7213 84.0073 15.7605C84.0073 15.7998 84.0073 15.8391 84.0073 15.8785C84.0073 15.9179 84.0073 15.9574 84.0073 15.9969C84.0073 16.0365 84.0073 16.0761 84.0073 16.1158C84.0073 16.1555 84.0073 16.1952 84.0073 16.235C84.0073 16.2749 84.0073 16.3148 84.0073 16.3548C84.0073 16.3948 84.0073 16.4348 84.0073 16.4749C84.0073 16.5151 84.0073 16.5553 84.0073 16.5955C84.0073 16.6358 84.0073 16.6762 84.0073 16.7166C84.0073 16.757 84.0073 16.7975 84.0073 16.838C84.0073 16.8786 84.0073 16.9192 84.0073 16.96C84.0073 17.0007 84.0073 17.0414 84.0073 17.0823C84.0073 17.1231 84.0073 17.1641 84.0073 17.2051C84.0073 17.2461 84.0073 17.2871 84.0073 17.3283C84.0073 17.3694 84.0073 17.4106 84.0073 17.4519C84.0073 17.4932 84.0073 17.5345 84.0073 17.576C84.0073 17.6174 84.0073 17.6589 84.0073 17.7004C84.0073 17.742 84.0073 17.7837 84.0073 17.8254C84.0073 17.8671 84.0073 17.9089 84.0073 17.9507C84.0073 17.9926 84.0073 18.0345 84.0073 18.0765C84.0073 18.1185 84.0073 18.1605 84.0073 18.2027C84.0073 18.2448 84.0073 18.287 84.0073 18.3293C84.0073 18.3716 84.0073 18.4139 84.0073 18.4563C84.0073 18.4987 84.0073 18.5412 84.0073 18.5838C84.0073 18.6263 84.0073 18.669 84.0073 18.7117C84.0073 18.7544 84.0073 18.7971 84.0073 18.84C84.0073 18.8828 84.0073 18.9257 84.0073 18.9687C84.0073 19.0116 84.0073 19.0547 84.0073 19.0978C84.0073 19.1409 84.0073 19.1841 84.0073 19.2274C84.0073 19.2706 84.0073 19.3139 84.0073 19.3573C84.0073 19.4007 84.0073 19.4442 84.0073 19.4877C84.0073 19.5312 84.0073 19.5748 84.0073 19.6185C84.0073 19.6622 84.0073 19.7059 84.0073 19.7497C84.0073 19.7935 84.0073 19.8374 84.0073 19.8813C84.0073 19.9253 84.0073 19.9693 84.0073 20.0134C84.0073 20.0574 84.0073 20.1016 84.0073 20.1458C84.0073 20.19 84.0073 20.2343 84.0073 20.2786C84.0073 20.323 84.0073 20.3674 84.0073 20.4119C84.0073 20.4564 84.0073 20.5009 84.0073 20.5455C84.0073 20.5902 84.0073 20.6349 84.0073 20.6796C84.0073 20.7244 84.0073 20.7692 84.0073 20.8141C84.0073 20.859 84.0073 20.9039 84.0073 20.949C84.0073 20.994 84.0073 21.0391 84.0073 21.0842C84.0073 21.1294 84.0073 21.1746 84.0073 21.2199C84.0073 21.2652 84.0073 21.3106 84.0073 21.356C84.0073 21.4014 84.0073 21.4469 84.0073 21.4925C84.0073 21.538 84.0073 21.5837 84.0073 21.6294C84.0073 21.6751 84.0073 21.7208 84.0073 21.7666C84.0073 21.8125 84.0073 21.8584 84.0073 21.9043C84.0073 21.9503 84.0073 21.9963 84.0073 22.0424C84.0073 22.0885 84.0073 22.1346 84.0073 22.1808C84.0073 22.2271 84.0073 22.2733 84.0073 22.3197C84.0073 22.3661 84.0073 22.4125 84.0073 22.459C84.0073 22.5054 84.0073 22.552 84.0073 22.5986C84.0073 22.6452 84.0073 22.6919 84.0073 22.7386C84.0073 22.7854 84.0073 22.8322 84.0073 22.8791C84.0073 22.9259 84.0073 22.9729 84.0073 23.0199C84.0073 23.0669 84.0073 23.1139 84.0073 23.1611C84.0073 23.2082 84.0073 23.2554 84.0073 23.3027C84.0073 23.3499 84.0073 23.3972 84.0073 23.4446C84.0073 23.492 84.0073 23.5395 84.0073 23.587C84.0073 23.6345 84.0073 23.6821 84.0073 23.7297C84.0073 23.7774 84.0073 23.8251 84.0073 23.8729C84.0073 23.9206 84.0073 23.9685 84.0073 24.0164C84.0073 24.0643 84.0073 24.1122 84.0073 24.1603C84.0073 24.2083 84.0073 24.2564 84.0073 24.3045C84.0073 24.3527 84.0073 24.4009 84.0073 24.4492C84.0073 24.4975 84.0073 24.5458 84.0073 24.5942C84.0073 24.6426 84.0073 24.6911 84.0073 24.7396C84.0073 24.7882 84.0073 24.8367 84.0073 24.8854C84.0073 24.9341 84.0073 24.9828 84.0073 25.0316C84.0073 25.0803 84.0073 25.1292 84.0073 25.1781C84.0073 25.227 84.0073 25.276 84.0073 25.325C84.0073 25.374 84.0073 25.4231 84.0073 25.4723C84.0073 25.5214 84.0073 25.5707 84.0073 25.6199C84.0073 25.6692 84.0073 25.7185 84.0073 25.768C84.0073 25.8174 84.0073 25.8668 84.0073 25.9163C84.0073 25.9659 84.0073 26.0155 84.0073 26.0651C84.0073 26.1147 84.0073 26.1645 84.0073 26.2142C84.0073 26.264 84.0073 26.3138 84.0073 26.3637C84.0073 26.4136 84.0073 26.4636 84.0073 26.5136C84.0073 26.5636 84.0073 26.6137 84.0073 26.6638C84.0073 26.7139 84.0073 26.7641 84.0073 26.8144C84.0073 26.8646 84.0073 26.915 84.0073 26.9653C84.0073 27.0157 84.0073 27.0662 84.0073 27.1167C84.0073 27.1671 84.0073 27.2177 84.0073 27.2683C84.0073 27.3189 84.0073 27.3696 84.0073 27.4204C84.0073 27.4711 84.0073 27.5219 84.0073 27.5727C84.0073 27.6236 84.0073 27.6745 84.0073 27.7255C84.0073 27.7765 84.0073 27.8275 84.0073 27.8786C84.0073 27.9297 84.0073 27.9808 84.0073 28.0321C84.0073 28.0833 84.0073 28.1345 84.0073 28.1859C84.0073 28.2372 84.0073 28.2886 84.0073 28.34C84.0073 28.3915 84.0073 28.443 84.0073 28.4946C84.0073 28.5461 84.0073 28.5978 84.0073 28.6494C84.0073 28.7011 84.0073 28.7529 84.0073 28.8047C84.0073 28.8565 84.0073 28.9083 84.0073 28.9603C84.0073 29.0122 84.0073 29.0641 84.0073 29.1162C84.0073 29.1682 84.0073 29.2203 84.0073 29.2725C84.0073 29.3246 84.0073 29.3768 84.0073 29.4291C84.0073 29.4813 84.0073 29.5337 84.0073 29.586C84.0073 29.6384 84.0073 29.6909 84.0073 29.7434C84.0073 29.7958 84.0073 29.8484 84.0073 29.901C84.0073 29.9536 84.0073 30.0063 84.0073 30.059C84.0073 30.1117 84.0073 30.1645 84.0073 30.2173C84.0073 30.2702 84.0073 30.3231 84.0073 30.376C84.0073 30.429 84.0073 30.482 84.0073 30.5351C84.0073 30.5881 84.0073 30.6412 84.0073 30.6944C84.0073 30.7476 84.0073 30.8008 84.0073 30.8541C84.0073 30.9074 84.0073 30.9608 84.0073 31.0142C84.0073 31.0676 84.0073 31.121 84.0073 31.1745C84.0073 31.228 84.0073 31.2816 84.0073 31.3352C84.0073 31.3889 84.0073 31.4425 84.0073 31.4963C84.0073 31.55 84.0073 31.6038 84.0073 31.6577C84.0073 31.7115 84.0073 31.7654 84.0073 31.8194C84.0073 31.8733 84.0073 31.9273 84.0073 31.9814C84.0073 32.0355 84.0073 32.0896 84.0073 32.1438C84.0073 32.198 84.0073 32.2522 84.0073 32.3065C84.0073 32.3608 84.0073 32.4151 84.0073 32.4695C84.0073 32.5239 84.0073 32.5784 84.0073 32.6329C84.0073 32.6874 84.0073 32.7419 84.0073 32.7966C84.0073 32.8512 84.0073 32.9059 84.0073 32.9606C84.0073 33.0153 84.0073 33.0701 84.0073 33.1249C84.0073 33.1797 84.0073 33.2346 84.0073 33.2896C84.0073 33.3445 84.0073 33.3995 84.0073 33.4546C84.0073 33.5096 84.0073 33.5647 84.0073 33.6199C84.0073 33.675 84.0073 33.7302 84.0073 33.7855C84.0073 33.8407 84.0073 33.8961 84.0073 33.9514C84.0073 34.0068 84.0073 34.0622 84.0073 34.1177C84.0073 34.1732 84.0073 34.2287 84.0073 34.2843C84.0073 34.3398 84.0073 34.3955 84.0073 34.4512C84.0073 34.5069 84.0073 34.5626 84.0073 34.6184C84.0073 34.6742 84.0073 34.73 84.0073 34.7859C84.0073 34.8418 84.0073 34.8977 84.0073 34.9537C84.0073 35.0097 84.0073 35.0658 84.0073 35.1219C84.0073 35.178 84.0073 35.2342 84.0073 35.2904C84.0073 35.3466 84.0073 35.4028 84.0073 35.4591C84.0073 35.5155 84.0073 35.5718 84.0073 35.6282C84.0073 35.6847 84.0073 35.7411 84.0073 35.7976C84.0073 35.8542 84.0073 35.9107 84.0073 35.9673C84.0073 36.024 84.0073 36.0806 84.0073 36.1374C84.0073 36.1941 84.0073 36.2508 84.0073 36.3077C84.0073 36.3645 84.0073 36.4214 84.0073 36.4783C84.0073 36.5352 84.0073 36.5922 84.0073 36.6492C84.0073 36.7062 84.0073 36.7633 84.0073 36.8205C84.0073 36.8776 84.0073 36.9348 84.0073 36.992C84.0073 37.0492 84.0073 37.1065 84.0073 37.1638C84.0073 37.2212 84.0073 37.2785 84.0073 37.336C84.0073 37.3934 84.0073 37.4509 84.0073 37.5084C84.0073 37.5659 84.0073 37.6235 84.0073 37.6811C84.0073 37.7388 84.0073 37.7964 84.0073 37.8542C84.0073 37.9119 84.0073 37.9697 84.0073 38.0275C84.0073 38.0853 84.0073 38.1432 84.0073 38.2011C84.0073 38.259 84.0073 38.317 84.0073 38.375C84.0073 38.433 84.0073 38.4911 84.0073 38.5492C84.0073 38.6073 84.0073 38.6655 84.0073 38.7237C84.0073 38.7819 84.0073 38.8402 84.0073 38.8985C84.0073 38.9568 84.0073 39.0152 84.0073 39.0736C84.0073 39.132 84.0073 39.1905 84.0073 39.249C84.0073 39.3075 84.0073 39.366 84.0073 39.4246C84.0073 39.4832 84.0073 39.5419 84.0073 39.6006C84.0073 39.6593 84.0073 39.718 84.0073 39.7768C84.0073 39.8356 84.0073 39.8945 84.0073 39.9534C84.0073 40.0122 84.0073 40.0712 84.0073 40.1302C84.0073 40.1891 84.0073 40.2482 84.0073 40.3073C84.0073 40.3663 84.0073 40.4255 84.0073 40.4846C84.0073 40.5438 84.0073 40.603 84.0073 40.6623C84.0073 40.7215 84.0073 40.7809 84.0073 40.8402C84.0073 40.8996 84.0073 40.959 84.0073 41.0184C84.0073 41.0779 84.0073 41.1374 84.0073 41.1969C84.0073 41.2565 84.0073 41.3161 84.0073 41.3757C84.0073 41.4353 84.0073 41.495 84.0073 41.5547C84.0073 41.6145 84.0073 41.6743 84.0073 41.7341C84.0073 41.7939 84.0073 41.8538 84.0073 41.9137C84.0073 41.9736 84.0073 42.0335 84.0073 42.0935C84.0073 42.1535 84.0073 42.2136 84.0073 42.2737C84.0073 42.3338 84.0073 42.3939 84.0073 42.4541C84.0073 42.5143 84.0073 42.5745 84.0073 42.6348C84.0073 42.6951 84.0073 42.7554 84.0073 42.8158C84.0073 42.8761 84.0073 42.9365 84.0073 42.997C84.0073 43.0574 84.0073 43.1179 84.0073 43.1785C84.0073 43.239 84.0073 43.2996 84.0073 43.3602C84.0073 43.4209 84.0073 43.4816 84.0073 43.5423C84.0073 43.603 84.0073 43.6638 84.0073 43.7246C84.0073 43.7854 84.0073 43.8462 84.0073 43.9071C84.0073 43.968 84.0073 44.029 84.0073 44.09C84.0073 44.1509 84.0073 44.212 84.0073 44.273C84.0073 44.3341 84.0073 44.3952 84.0073 44.4564C84.0073 44.5175 84.0073 44.5788 84.0073 44.64C84.0073 44.7012 84.0073 44.7625 84.0073 44.8239C84.0073 44.8852 84.0073 44.9466 84.0073 45.008C84.0073 45.0694 84.0073 45.1309 84.0073 45.1924C84.0073 45.2539 84.0073 45.3154 84.0073 45.377C84.0073 45.4386 84.0073 45.5002 84.0073 45.5619C84.0073 45.6236 84.0073 45.6853 84.0073 45.747C84.0073 45.8088 84.0073 45.8706 84.0073 45.9324C84.0073 45.9943 84.0073 46.0562 84.0073 46.1181C84.0073 46.18 84.0073 46.242 84.0073 46.304C84.0073 46.366 84.0073 46.4281 84.0073 46.4902C84.0073 46.5523 84.0073 46.6144 84.0073 46.6766C84.0073 46.7387 84.0073 46.801 84.0073 46.8632C84.0073 46.9255 84.0073 46.9878 84.0073 47.0501C84.0073 47.1125 84.0073 47.1748 84.0073 47.2373C84.0073 47.2997 84.0073 47.3622 84.0073 47.4247C84.0073 47.4872 84.0073 47.5497 84.0073 47.6123C84.0073 47.6749 84.0073 47.7375 84.0073 47.8002C84.0073 47.8629 84.0073 47.9256 84.0073 47.9883C84.0073 48.0511 84.0073 48.1138 84.0073 48.1767C84.0073 48.2395 84.0073 48.3024 84.0073 48.3653C84.0073 48.4282 84.0073 48.4911 84.0073 48.5541C84.0073 48.6171 84.0073 48.6801 84.0073 48.7432C84.0073 48.8063 84.0073 48.8694 84.0073 48.9325C84.0073 48.9957 84.0073 49.0589 84.0073 49.1221C84.0073 49.1853 84.0073 49.2486 84.0073 49.3119C84.0073 49.3752 84.0073 49.4385 84.0073 49.5019C84.0073 49.5653 84.0073 49.6287 84.0073 49.6922C84.0073 49.7556 84.0073 49.8191 84.0073 49.8827C84.0073 49.9462 84.0073 50.0098 84.0073 50.0734C84.0073 50.137 84.0073 50.2007 84.0073 50.2644C84.0073 50.3281 84.0073 50.3918 84.0073 50.4556C84.0073 50.5193 84.0073 50.5831 84.0073 50.647C84.0073 50.7108 84.0073 50.7747 84.0073 50.8386C84.0073 50.9026 84.0073 50.9665 84.0073 51.0305C84.0073 51.0945 84.0073 51.1585 84.0073 51.2226C84.0073 51.2867 84.0073 51.3508 84.0073 51.4149C84.0073 51.4791 84.0073 51.5433 84.0073 51.6075C84.0073 51.6717 84.0073 51.736 84.0073 51.8003C84.0073 51.8646 84.0073 51.9289 84.0073 51.9933C84.0073 52.0576 84.0073 52.122 84.0073 52.1865C84.0073 52.2509 84.0073 52.3154 84.0073 52.3799C84.0073 52.4444 84.0073 52.509 84.0073 52.5736C84.0073 52.6382 84.0073 52.7028 84.0073 52.7674C84.0073 52.8321 84.0073 52.8968 84.0073 52.9615C84.0073 53.0263 84.0073 53.091 84.0073 53.1558C84.0073 53.2207 84.0073 53.2855 84.0073 53.3504C84.0073 53.4152 84.0073 53.4802 84.0073 53.5451C84.0073 53.6101 84.0073 53.675 84.0073 53.7401C84.0073 53.8051 84.0073 53.8701 84.0073 53.9352C84.0073 54.0003 84.0073 54.0654 84.0073 54.1306C84.0073 54.1958 84.0073 54.261 84.0073 54.3262C84.0073 54.3914 84.0073 54.4567 84.0073 54.522C84.0073 54.5873 84.0073 54.6526 84.0073 54.718C84.0073 54.7834 84.0073 54.8488 84.0073 54.9142C84.0073 54.9796 84.0073 55.0451 84.0073 55.1106C84.0073 55.1761 84.0073 55.2417 84.0073 55.3072C84.0073 55.3728 84.0073 55.4384 84.0073 55.5041C84.0073 55.5697 84.0073 55.6354 84.0073 55.7011C84.0073 55.7668 84.0073 55.8326 84.0073 55.8983C84.0073 55.9641 84.0073 56.0299 84.0073 56.0958C84.0073 56.1616 84.0073 56.2275 84.0073 56.2934C84.0073 56.3593 84.0073 56.4253 84.0073 56.4913C84.0073 56.5572 84.0073 56.6232 84.0073 56.6893C84.0073 56.7553 84.0073 56.8214 84.0073 56.8875C84.0073 56.9536 84.0073 57.0198 84.0073 57.086C84.0073 57.1521 84.0073 57.2183 84.0073 57.2846C84.0073 57.3508 84.0073 57.4171 84.0073 57.4834C84.0073 57.5497 84.0073 57.6161 84.0073 57.6824C84.0073 57.7488 84.0073 57.8152 84.0073 57.8816C84.0073 57.9481 84.0073 58.0145 84.0073 58.081C84.0073 58.1475 84.0073 58.2141 84.0073 58.2806C84.0073 58.3472 84.0073 58.4138 84.0073 58.4804C84.0073 58.547 84.0073 58.6137 84.0073 58.6804C84.0073 58.7471 84.0073 58.8138 84.0073 58.8805C84.0073 58.9473 84.0073 59.0141 84.0073 59.0809C84.0073 59.1477 84.0073 59.2145 84.0073 59.2814C84.0073 59.3483 84.0073 59.4152 84.0073 59.4821C84.0073 59.5491 84.0073 59.616 84.0073 59.683C84.0073 59.75 84.0073 59.8171 84.0073 59.8841C84.0073 59.9512 84.0073 60.0183 84.0073 60.0854C84.0073 60.1525 84.0073 60.2197 84.0073 60.2868C84.0073 60.354 84.0073 60.4212 84.0073 60.4885C84.0073 60.5557 84.0073 60.623 84.0073 60.6903C84.0073 60.7576 84.0073 60.8249 84.0073 60.8923C84.0073 60.9596 84.0073 61.027 84.0073 61.0944C84.0073 61.1618 84.0073 61.2293 84.0073 61.2968C84.0073 61.3642 84.0073 61.4317 84.0073 61.4993C84.0073 61.5668 84.0073 61.6344 84.0073 61.702C84.0073 61.7696 84.0073 61.8372 84.0073 61.9048C84.0073 61.9725 84.0073 62.0401 84.0073 62.1079C84.0073 62.1756 84.0073 62.2433 84.0073 62.3111C84.0073 62.3788 84.0073 62.4466 84.0073 62.5144C84.0073 62.5823 84.0073 62.6501 84.0073 62.718C84.0073 62.7859 84.0073 62.8538 84.0073 62.9217C84.0073 62.9896 84.0073 63.0576 84.0073 63.1256C84.0073 63.1936 84.0073 63.2616 84.0073 63.3296C84.0073 63.3977 84.0073 63.4658 84.0073 63.5339C84.0073 63.602 84.0073 63.6701 84.0073 63.7382C84.0073 63.8064 84.0073 63.8746 84.0073 63.9428C84.0073 64.011 84.0073 64.0792 84.0073 64.1475C84.0073 64.2157 84.0073 64.284 84.0073 64.3523C84.0073 64.4207 84.0073 64.489 84.0073 64.5574C84.0073 64.6257 84.0073 64.6941 84.0073 64.7626C84.0073 64.831 84.0073 64.8994 84.0073 64.9679C84.0073 65.0364 84.0073 65.1049 84.0073 65.1734C84.0073 65.2419 84.0073 65.3105 84.0073 65.3791C84.0073 65.4477 84.0073 65.5163 84.0073 65.5849C84.0073 65.6535 84.0073 65.7222 84.0073 65.7909C84.0073 65.8596 84.0073 65.9283 84.0073 65.997H86.0234Z" fill="#07003A"/>
<path d="M111.828 66.56C111.832 67.6735 112.737 68.5731 113.851 68.5695C114.964 68.5658 115.864 67.6602 115.86 66.5467L113.844 66.5533L111.828 66.56ZM84.9083 0.278864L82.8922 0.284653L82.9037 4.31688L84.9199 4.31109L84.9141 2.29498L84.9083 0.278864ZM113.844 66.5533L115.86 66.5467C115.8 48.2495 112.497 31.8781 107.117 20.0103C101.818 8.32128 94.1154 0.252425 84.9083 0.278864L84.9141 2.29498L84.9199 4.31109C91.5692 4.292 98.2723 10.2665 103.444 21.6752C108.535 32.905 111.769 48.6855 111.828 66.56L113.844 66.5533Z" fill="#07003A"/>
<path d="M140.199 66.282C140.202 67.3955 141.108 68.295 142.222 68.2913C143.335 68.2875 144.235 67.3818 144.231 66.2684L142.215 66.2752L140.199 66.282ZM86.0178 0.279005L84.0017 0.284668L84.013 4.3169L86.0291 4.31123L86.0234 2.29512L86.0178 0.279005ZM142.215 66.2752L144.231 66.2684C144.108 29.9949 118.295 0.18835 86.0178 0.279005L86.0234 2.29512L86.0291 4.31123C115.582 4.22823 140.082 31.7021 140.199 66.282L142.215 66.2752Z" fill="#07003A"/>
<path d="M170.588 71.8385C170.588 68.3613 169.379 65.3454 166.974 62.731C164.568 60.1165 161.27 58.4942 157.728 58.1828C154.185 57.8714 150.653 58.8935 147.827 61.0482C145.001 63.2029 143.085 66.3345 142.455 69.8275C141.842 66.5592 140.101 63.6086 137.534 61.4886C134.967 59.3686 131.737 58.2133 128.405 58.2236C125.073 58.2338 121.85 59.409 119.297 61.5447C116.743 63.6804 115.02 66.6417 114.428 69.9137C113.812 66.6471 112.069 63.699 109.502 61.5813C106.934 59.4636 103.705 58.3099 100.374 58.3207C97.0434 58.3316 93.8216 59.5061 91.2682 61.6405C88.7148 63.7748 86.9911 66.7342 86.3964 70.0046C85.7837 66.7364 84.0425 63.7858 81.4758 61.6658C78.909 59.5458 75.6789 58.3905 72.3471 58.4007C69.0152 58.411 65.7924 59.5861 63.2387 61.7218C60.6851 63.8576 58.9623 66.8188 58.3697 70.0908C57.7564 66.8226 56.0148 63.8723 53.4477 61.7528C50.8806 59.6332 47.6503 58.4784 44.3184 58.4893C40.9866 58.5001 37.7639 59.6758 35.2106 61.8119C32.6574 63.9481 30.935 66.9097 30.3431 70.1818C29.693 66.6902 27.7573 63.5677 24.9165 61.4287C22.0758 59.2897 18.5358 58.2889 14.9929 58.6232C11.45 58.9576 8.16075 60.6028 5.7722 63.2354C3.38364 65.8679 2.06872 69.2971 2.08611 72.8484" stroke="#07003A" stroke-width="4.03224" stroke-miterlimit="10" stroke-linecap="round" stroke-linejoin="round"/>
<path d="M213.164 16.2375L224.929 45.4897H227.327L239.036 16.2375H236.582L226.156 42.9631L215.673 16.2375H213.164ZM265.129 45.4897L265.017 26.0635C264.961 19.9992 261.226 16.1816 254.367 16.1816C249.962 16.1816 246.617 17.81 243.16 20.336L244.275 22.1331C247.342 19.7746 250.408 18.315 254.033 18.315C259.831 18.315 262.675 21.2907 262.731 26.2316V29.0951H252.416C245.725 29.0951 241.598 32.0708 241.598 36.9553C241.598 41.8962 245.446 45.5461 251.189 45.5461C256.207 45.5461 260.333 43.7491 262.787 39.7064L262.843 45.4897H265.129ZM251.523 43.4123C246.784 43.4123 243.829 40.7734 243.829 36.8994C243.829 33.1377 246.951 31.1725 252.639 31.1725H262.787V35.9447C261.002 41.0544 256.932 43.4123 251.523 43.4123ZM297.991 16.2375V23.7614C295.928 19.1009 291.635 16.1816 286.059 16.1816C278.309 16.1816 272.677 22.0767 272.677 30.2743C272.677 38.4155 278.309 44.3105 286.115 44.3105C291.635 44.3105 295.984 41.4471 297.991 36.7871V42.2894C297.991 49.5883 293.308 54.2487 286.115 54.1923C281.933 54.08 278.643 52.7327 275.632 49.8692L274.406 51.6099C277.807 54.6979 281.543 56.2698 286.171 56.3821C294.702 56.4379 300.222 50.9356 300.222 42.2894V16.2375H297.991ZM286.394 42.2894C279.647 42.2894 274.852 37.2362 274.852 30.3301C274.852 23.3682 279.702 18.315 286.394 18.315C293.085 18.315 297.991 23.3682 297.991 30.3301C297.991 37.2362 293.085 42.2894 286.394 42.2894ZM331.994 45.4897L331.883 26.0635C331.827 19.9992 328.092 16.1816 321.233 16.1816C316.829 16.1816 313.483 17.81 310.026 20.336L311.141 22.1331C314.208 19.7746 317.275 18.315 320.899 18.315C326.698 18.315 329.541 21.2907 329.597 26.2316V29.0951H319.282C312.591 29.0951 308.465 32.0708 308.465 36.9553C308.465 41.8962 312.312 45.5461 318.055 45.5461C323.073 45.5461 327.199 43.7491 329.653 39.7064L329.708 45.4897H331.994ZM318.39 43.4123C313.65 43.4123 310.695 40.7734 310.695 36.8994C310.695 33.1377 313.817 31.1725 319.505 31.1725H329.653V35.9447C327.869 41.0544 323.798 43.4123 318.39 43.4123ZM356.828 20.3925L357.832 18.4837C355.546 17.0799 352.758 16.1816 349.524 16.1816C344.394 16.1816 339.989 18.4273 339.989 23.5369C339.989 33.5868 357.163 29.8252 356.94 38.0786C356.773 41.7839 353.26 43.4123 349.189 43.4123C345.51 43.4123 341.996 42.0649 339.488 39.7064L338.428 41.5035C341.104 44.0859 345.008 45.5461 349.078 45.5461C354.319 45.5461 359.17 43.1318 359.17 37.6854C359.17 27.3544 342.22 31.2284 342.22 23.3682C342.22 19.8869 345.398 18.315 349.468 18.315C352.256 18.315 354.821 19.1009 356.828 20.3925Z" fill="white"/>
<path d="M247.626 139.851C268.028 139.851 280.127 128.081 280.127 106.814V66.3447H263.722V106.195C263.722 119.926 257.879 125.604 247.728 125.604C237.681 125.604 231.734 119.926 231.734 106.195V66.3447H215.125V106.814C215.125 128.081 227.223 139.851 247.626 139.851ZM359.924 138.612L333.165 101.24L358.182 66.3447H340.239L324.04 89.7801L307.534 66.3447H288.669L313.89 101.859L287.336 138.612H306.406L323.425 113.525L340.752 138.612H359.924Z" fill="white"/>
<path d="M382.076 131.781C382.076 127.45 378.589 123.939 374.288 123.939C369.987 123.939 366.5 127.45 366.5 131.781C366.5 136.112 369.987 139.623 374.288 139.623C378.589 139.623 382.076 136.112 382.076 131.781Z" fill="#F6D16E"/>
</svg>
