<svg width="757" height="642" viewBox="0 0 757 642" fill="none" xmlns="http://www.w3.org/2000/svg">
<path d="M277.311 637.042C204.369 625.702 120.834 611.105 59.6557 551.397C-81.8934 413.249 50.7402 148.55 225.127 55.2217C432.163 -55.5799 771.439 63.8955 756.039 337.517C750.149 441.881 676.33 534.795 583.013 581.874C489.66 628.953 380.614 653.101 277.311 637.042Z" fill="#F6D16E"/>
<rect x="299.568" y="26.7356" width="125.335" height="226.124" rx="11.9114" fill="#07003A"/>
<rect x="226.138" y="191.449" width="349.224" height="167.275" rx="11.9114" fill="#07003A"/>
<rect x="237.958" y="113.606" width="263.002" height="198.553" rx="11.9114" fill="#07003A"/>
<path d="M575.361 253.021C591.613 268.543 600.102 291.827 595.494 315.595C588.702 350.763 555.956 374.531 521.027 370.893C525.393 335.483 501.38 302.256 465.966 295.465C464.025 295.222 462.327 294.737 460.387 294.737C460.629 293.282 460.872 291.584 461.114 290.129C464.268 273.637 473.242 259.57 485.37 249.626C492.405 263.45 505.503 273.879 521.755 277.032C543.585 280.913 564.688 270.726 575.361 253.021Z" fill="#07003A"/>
<path d="M541.16 175.41C569.054 180.745 587.489 207.667 582.153 235.801C580.94 242.107 578.757 247.927 575.604 253.021C566.386 244.289 554.743 237.984 541.402 235.558C520.785 231.678 500.652 237.256 485.613 249.383C480.762 239.681 478.821 228.04 481.004 216.398C481.247 215.428 481.49 214.7 481.49 213.73C507.201 216.64 531.215 200.148 537.521 174.924C538.734 174.924 539.947 175.167 541.16 175.41Z" fill="#07003A"/>
<path d="M541.16 235.315C554.501 237.983 566.144 244.046 575.362 252.777C564.446 270.482 543.343 280.669 521.755 276.546C505.504 273.393 492.405 262.964 485.371 249.139C500.41 237.013 520.785 231.434 541.16 235.315Z" fill="#07003A"/>
<path d="M497.014 111.865C524.908 117.201 543.343 144.122 538.007 172.256C537.764 173.226 537.522 173.954 537.522 174.924C511.81 172.014 487.796 188.506 481.49 213.73C480.277 213.487 479.064 213.487 477.851 213.245C455.778 209.122 439.769 191.416 436.616 170.316C459.417 166.193 478.336 148.245 482.945 124.234C483.673 119.869 484.158 115.503 483.915 111.137C488.039 110.652 492.648 110.895 497.014 111.865Z" fill="#07003A"/>
<path d="M481.489 213.73C487.796 188.507 511.81 172.014 537.521 174.925C531.215 200.148 507.201 216.641 481.489 213.73Z" fill="#07003A"/>
<path d="M465.966 295.221C501.622 302.012 525.393 335.239 521.027 370.649C519.087 370.407 517.389 370.164 515.448 369.922C479.792 363.131 456.021 329.904 460.387 294.493C462.085 294.736 464.025 294.978 465.966 295.221Z" fill="#07003A"/>
<path d="M521.027 370.649C520.785 372.105 520.542 373.802 520.299 375.258C514.478 405.332 489.737 427.16 460.872 430.556C464.025 423.765 466.451 416.246 467.906 408.485C476.153 365.071 452.867 323.113 413.815 306.135C426.913 296.919 443.407 292.553 460.144 294.251C455.778 329.661 479.791 362.888 515.206 369.679C517.389 370.164 519.329 370.407 521.027 370.649Z" fill="#07003A"/>
<path d="M483.673 111.137C483.915 115.502 483.43 119.868 482.703 124.234C478.094 148.487 459.174 166.192 436.373 170.315C435.403 164.737 435.646 158.674 436.616 152.853C441.225 129.327 460.872 112.592 483.673 111.137Z" fill="#07003A"/>
<path d="M481.49 213.73C481.247 214.7 481.004 215.428 481.004 216.398C478.821 228.04 480.762 239.439 485.613 249.383C473.485 259.327 464.51 273.151 461.357 289.886C461.114 291.584 460.872 293.039 460.629 294.494C443.65 292.554 427.398 297.162 414.3 306.378C408.236 303.711 401.687 301.77 394.895 300.315C358.996 293.524 324.067 308.319 303.449 335.725C303.206 335.24 302.721 334.755 302.479 334.512C304.904 328.934 306.845 323.113 307.815 316.807C313.637 286.006 302.236 255.931 280.163 236.528C292.291 227.555 301.023 214.215 304.177 198.208C307.087 183.656 304.419 169.346 297.87 157.219C325.522 155.279 349.293 134.906 354.872 106.53C356.57 98.2835 356.327 90.0373 354.63 82.2762C356.085 81.5486 357.298 80.5784 358.753 79.6083C362.149 84.7015 366.515 89.0671 372.094 92.4626C370.881 95.6156 369.911 99.0111 369.183 102.649C363.119 134.179 383.737 164.496 415.27 170.559C422.547 172.014 429.824 172.014 436.616 170.559C439.769 191.659 455.778 209.122 477.851 213.488C478.821 213.245 480.277 213.488 481.49 213.73Z" fill="#07003A"/>
<path d="M414.057 306.378C452.867 323.112 476.395 365.314 468.148 408.727C466.693 416.488 464.267 423.765 461.114 430.798C454.322 431.526 447.53 431.283 440.496 430.07C403.384 423.037 378.885 387.142 386.162 350.034C389.315 331.359 399.746 316.079 414.057 306.378Z" fill="#07003A"/>
<path d="M440.254 429.829C447.289 431.041 454.08 431.284 460.872 430.556C443.408 467.907 402.172 490.22 359.724 481.974C324.067 475.183 297.143 448.746 287.925 415.761C300.296 407.758 309.756 394.661 312.667 378.896C315.82 363.131 311.696 347.609 302.964 335.24C323.582 307.833 358.511 293.039 394.41 299.83C401.202 301.042 407.751 303.225 413.815 305.893C399.746 315.837 389.074 330.874 385.678 349.307C378.644 386.9 403.142 422.795 440.254 429.829Z" fill="#07003A"/>
<path d="M436.616 56.3248C463.54 61.418 482.703 84.7014 483.673 111.138C460.872 112.593 441.225 129.328 436.616 152.854C435.403 158.675 435.403 164.738 436.373 170.316C429.582 171.529 422.305 171.529 415.028 170.316C383.495 164.253 362.877 133.936 368.941 102.406C369.669 98.7684 370.639 95.3729 371.852 92.22C375.975 94.8879 380.827 96.5856 385.92 97.5558C408.721 101.921 430.794 86.8842 435.161 64.0859C435.646 61.418 435.888 58.7502 435.888 56.0823C436.131 56.0823 436.373 56.3248 436.616 56.3248Z" fill="#07003A"/>
<path d="M435.888 56.0821C435.888 58.75 435.645 61.4179 435.16 64.0858C430.794 86.8841 408.721 101.921 385.92 97.5556C380.826 96.5855 375.975 94.6452 371.851 92.2198C381.554 66.9962 408.236 51.2314 435.888 56.0821Z" fill="#07003A"/>
<path d="M435.888 56.0823C408.236 51.2316 381.797 66.7538 371.852 92.22C366.516 88.8245 361.907 84.4589 358.511 79.3656C366.273 73.7873 372.094 65.2986 374.035 54.8696C376.218 43.4705 373.307 32.3139 366.758 23.8251C375.975 16.064 388.589 12.426 401.444 14.8513C421.82 18.7319 435.646 36.437 435.888 56.0823Z" fill="#07003A"/>
<path d="M366.758 24.0676C373.307 32.5563 376.218 43.713 374.034 55.1121C372.094 65.2986 366.273 73.7873 358.511 79.6081C357.055 77.4253 355.842 75 354.872 72.5746C351.961 65.2986 350.991 57.0524 352.446 48.8062C354.387 38.3772 359.723 29.8885 366.758 24.0676Z" fill="#07003A"/>
<path d="M354.873 72.3331C355.843 74.7585 357.056 77.1838 358.511 79.3666C357.298 80.3368 355.843 81.0644 354.388 82.0345C353.902 79.1241 352.932 76.2137 351.962 73.3033L354.873 72.3331Z" fill="#07003A"/>
<path d="M354.63 82.0332C356.328 89.7944 356.328 98.0405 354.872 106.287C349.293 134.663 325.28 155.036 297.628 156.977C289.138 140.727 273.614 128.6 254.209 124.719C248.63 123.749 243.294 123.264 237.957 123.749C231.408 111.622 228.983 97.3129 231.651 82.5183C237.715 50.5037 267.307 28.6756 299.326 32.0711C298.355 34.4964 297.385 37.1643 296.9 40.0747C292.776 61.4178 306.845 82.0332 328.191 85.9138C337.65 87.8541 346.868 86.1563 354.63 82.0332Z" fill="#07003A"/>
<path d="M354.872 72.3318L352.204 73.302C344.927 53.1716 327.705 37.4068 305.147 33.0412C303.206 32.7986 301.508 32.3136 299.568 32.3136C306.602 15.5786 324.552 5.63471 342.986 9.0302C352.931 10.9705 361.179 16.5488 367 23.8248C359.723 29.8882 354.387 38.3769 352.446 48.3209C350.748 56.8096 351.719 65.0558 354.872 72.3318Z" fill="#07003A"/>
<path d="M351.961 73.3017C352.931 76.2121 353.902 79.1225 354.387 82.0329C346.625 86.3985 337.407 88.0963 327.948 86.156C306.602 82.0329 292.776 61.4174 296.657 40.3169C297.142 37.4065 298.112 34.7386 299.083 32.3132C301.023 32.5558 302.721 32.7983 304.662 33.0408C327.462 37.4065 344.684 53.1712 351.961 73.3017Z" fill="#07003A"/>
<path d="M302.964 335.725C311.696 347.852 315.577 363.374 312.667 379.382C309.756 395.146 300.296 408.001 287.925 416.247C284.287 402.908 283.559 388.598 286.227 374.046C288.896 359.494 294.717 346.639 302.964 335.725Z" fill="#07003A"/>
<path d="M279.92 236.285C301.994 255.687 313.394 285.762 307.572 316.564C306.36 322.87 304.662 328.69 302.236 334.269C293.989 323.597 282.103 315.836 268.035 312.926C237.472 307.105 207.879 327.235 201.815 357.795C200.117 366.526 200.603 375.015 202.786 383.018C159.367 372.104 131.472 328.933 139.962 284.307C145.541 254.96 165.431 232.162 191.143 221.49C200.117 234.587 214.186 244.288 230.923 247.441C248.63 251.079 266.337 246.471 279.92 236.285Z" fill="#07003A"/>
<path d="M297.627 156.977C304.176 169.104 306.602 183.413 303.934 197.965C300.781 213.973 292.048 227.312 279.92 236.286C268.762 226.585 255.179 219.551 239.655 216.641C222.676 213.488 205.696 215.428 190.9 221.734C181.683 208.394 177.802 191.66 180.955 174.44C186.534 146.063 210.305 125.933 237.957 123.75C246.447 140 262.213 152.126 281.376 155.764C286.955 156.977 292.291 157.22 297.627 156.977Z" fill="#07003A"/>
<path d="M302.964 335.725C294.716 346.639 288.895 359.493 285.984 373.803C283.316 388.355 284.044 402.664 287.682 416.004C275.797 423.765 261.243 426.918 246.447 424.007C224.616 419.884 207.879 403.392 202.543 383.262C204.241 383.747 205.939 383.989 207.637 384.474C247.659 392.235 286.712 370.407 301.993 334.512C302.478 334.755 302.721 335.24 302.964 335.725Z" fill="#07003A"/>
<path d="M297.628 156.976C292.291 157.461 286.955 156.976 281.376 156.006C261.971 152.368 246.447 139.999 237.958 123.992C243.294 123.507 248.63 123.992 254.209 124.962C273.614 128.6 289.138 140.727 297.628 156.976Z" fill="#07003A"/>
<path d="M267.792 313.17C282.104 315.838 293.989 323.841 301.994 334.513C286.47 370.651 247.66 392.236 207.637 384.475C205.939 384.233 204.241 383.747 202.543 383.262C200.36 375.259 199.875 366.528 201.573 358.039C207.637 327.237 237.23 307.349 267.792 313.17Z" fill="#07003A"/>
<path d="M279.92 236.286C266.337 246.472 248.63 251.08 230.68 247.685C213.943 244.532 199.875 234.83 190.9 221.733C205.696 215.428 222.676 213.487 239.655 216.64C255.179 219.793 269.005 226.584 279.92 236.286Z" fill="#07003A"/>
<path d="M157.669 69.4221C157.669 69.4221 168.342 10.4861 183.381 1.51227C195.509 -5.76378 188.96 15.5793 188.96 15.5793L183.381 30.3739C183.866 29.4038 190.9 33.2843 191.385 33.5269C200.603 40.3179 196.722 55.1125 197.692 65.0564C197.692 66.0266 198.662 76.9406 199.39 77.1832C199.39 77.1832 157.669 69.4221 157.669 69.4221Z" fill="#5D6BF6"/>
<path d="M182.653 36.6801C182.653 36.6801 176.589 16.0647 191.627 7.09088C203.756 -0.185163 197.206 21.1579 197.206 21.1579L191.627 35.9525C192.113 34.9824 182.653 36.6801 182.653 36.6801Z" fill="#5D6BF6"/>
<path d="M186.777 49.5338C186.777 49.5338 180.713 28.9183 195.751 19.9445C207.88 12.6685 201.33 34.0116 201.33 34.0116L195.751 48.8062C195.994 47.836 186.777 49.5338 186.777 49.5338Z" fill="#5D6BF6"/>
<path d="M182.168 67.4821C182.168 67.4821 185.322 46.139 202.786 44.4413C216.37 43.2286 201.816 59.721 201.816 59.721C201.816 59.721 190.658 70.6351 190.658 70.8776C191.386 69.9075 182.168 67.4821 182.168 67.4821Z" fill="#5D6BF6"/>
<path d="M333.042 290.372C333.042 290.372 214.186 278.487 205.939 174.197C197.692 70.635 202.786 71.6052 202.786 71.6052L153.788 67.4821C153.788 67.4821 81.99 293.04 262.456 409.941L238.338 605.629L529.344 596.099L554.501 394.904C550.863 366.77 530.73 343.487 503.078 336.453L333.042 290.372Z" fill="#D378A8"/>
<path d="M222.279 627.506C240.936 631.29 259.441 634.264 277.311 637.042C379.074 652.861 486.41 629.664 578.827 583.965L554.501 394.904C550.863 366.77 530.73 343.487 503.078 336.453L333.042 290.372C333.042 290.372 214.186 278.487 205.939 174.197C197.821 72.2534 202.63 71.6003 202.782 71.6048L198.161 71.2159C179.329 83.4929 161.163 97.6955 143.983 113.415C133.357 185.559 132.651 325.857 262.456 409.941L222.279 627.506Z" fill="#D378A8"/>
<path d="M427.884 316.08C427.642 314.868 427.399 313.17 427.156 311.23C426.914 309.532 426.671 307.592 426.429 305.651C426.186 304.439 426.186 303.468 425.944 302.256C422.548 278.487 418.909 239.924 424.731 215.428C424.731 215.428 448.502 204.272 449.23 182.929C449.957 161.1 425.458 168.376 425.458 168.376C425.458 168.376 395.381 163.768 392.713 140.485C392.713 140.485 413.33 91.978 410.662 87.6124C392.955 59.7208 304.662 11.6989 287.198 125.205C287.198 125.205 285.743 129.813 284.045 137.089C283.317 139.757 282.832 142.91 282.104 146.548V147.276L278.223 178.32C278.223 178.563 278.223 179.048 278.223 179.291C277.981 182.201 277.981 185.111 277.981 188.022C277.738 225.13 288.896 265.633 337.651 269.999C337.651 269.999 340.077 343.244 339.834 343.972" fill="#5D6BF6"/>
<path d="M405.083 173.713C359.239 207.182 332.072 166.922 332.072 166.922C377.916 133.452 405.083 173.713 405.083 173.713Z" fill="white"/>
<path d="M332.072 166.921C344.2 157.947 355.115 154.309 364.575 153.581C370.396 158.917 373.307 166.921 371.852 175.167C370.882 179.775 368.941 183.656 365.788 186.809C344.2 184.868 332.072 166.921 332.072 166.921Z" fill="#07003A"/>
<path d="M281.619 147.276L277.738 178.321C277.738 178.563 277.738 179.048 277.738 179.291C280.891 179.048 284.53 178.321 288.168 177.108C294.475 175.168 301.509 171.53 309.028 166.194C309.028 166.194 302.964 157.22 291.806 151.157C288.653 149.459 285.257 148.246 281.619 147.276Z" fill="white"/>
<path d="M281.619 147.276L277.738 178.321C277.738 178.563 277.738 179.048 277.738 179.291C280.891 179.048 284.53 178.321 288.168 177.108C290.108 173.955 291.564 170.317 292.292 166.436C293.262 161.343 293.019 156.007 291.806 151.399C288.653 149.459 285.257 148.246 281.619 147.276Z" fill="#07003A"/>
<path d="M426.671 201.361C426.913 201.361 427.156 201.361 427.398 201.361C428.369 201.119 428.854 200.148 428.611 199.178C428.369 198.693 428.126 196.753 429.096 196.025C429.824 195.298 431.279 195.298 432.492 195.54C433.462 195.783 434.433 195.055 434.433 194.085C434.675 193.115 433.947 192.145 432.977 192.145C430.066 191.66 427.883 192.145 426.428 193.6C424.245 196.025 424.973 199.663 425.215 200.148C425.458 200.634 425.943 201.119 426.671 201.361Z" fill="#07003A"/>
<path d="M328.433 272.666C328.676 272.666 334.982 273.636 342.502 272.666C352.689 271.453 360.694 267.33 365.545 261.024C366.03 260.296 366.03 259.084 365.303 258.599C364.575 258.114 363.362 258.114 362.877 258.841C352.447 272.423 329.161 269.27 328.918 269.27C327.948 269.028 326.978 269.755 326.978 270.725C326.978 271.696 327.463 272.666 328.433 272.666Z" fill="#07003A"/>
<path d="M287.198 122.052C300.728 122.052 311.697 111.085 311.697 97.5564C311.697 84.0277 300.728 73.0604 287.198 73.0604C273.667 73.0604 262.699 84.0277 262.699 97.5564C262.699 111.085 273.667 122.052 287.198 122.052Z" fill="#07003A"/>
<path d="M311.212 90.2803C324.742 90.2803 335.71 79.313 335.71 65.7842C335.71 52.2555 324.742 41.2882 311.212 41.2882C297.681 41.2882 286.713 52.2555 286.713 65.7842C286.713 79.313 297.681 90.2803 311.212 90.2803Z" fill="#07003A"/>
<path d="M365.788 107.743C388.16 107.743 406.296 89.6087 406.296 67.2393C406.296 44.8699 388.16 26.736 365.788 26.736C343.416 26.736 325.28 44.8699 325.28 67.2393C325.28 89.6087 343.416 107.743 365.788 107.743Z" fill="#07003A"/>
<path d="M425.216 166.921C454.688 166.921 478.579 143.032 478.579 113.563C478.579 84.0944 454.688 60.2053 425.216 60.2053C395.744 60.2053 371.852 84.0944 371.852 113.563C371.852 143.032 395.744 166.921 425.216 166.921Z" fill="#07003A"/>
<path d="M315.335 190.689C315.092 190.689 314.85 190.689 314.85 190.446C310.484 188.506 308.058 183.655 309.514 179.047C310.484 175.652 312.909 173.711 315.335 171.528C316.063 170.801 316.79 170.073 317.518 169.346C320.429 166.193 323.097 162.312 324.795 158.432C325.038 157.704 326.008 157.219 326.735 157.704C327.463 157.946 327.948 158.917 327.463 159.644C325.765 164.01 322.854 168.375 319.459 171.771C318.731 172.499 317.761 173.226 317.033 173.954C314.85 175.894 312.909 177.592 312.182 180.017C311.211 182.928 312.909 186.566 315.82 187.778C316.548 188.021 317.033 188.991 316.548 189.719C316.548 190.446 315.82 190.689 315.335 190.689Z" fill="#07003A"/>
<path d="M432.736 206.94L446.077 232.891L426.672 231.921L425.459 207.425L432.736 206.94Z" fill="#D84A48"/>
<path d="M335.468 215.185C330.374 215.185 326.251 213.245 326.008 213.002C325.281 212.517 325.038 211.79 325.281 211.062C325.766 210.334 326.493 210.092 327.221 210.334C327.221 210.334 334.013 213.487 339.834 211.304C342.745 210.092 345.171 207.909 346.626 204.271C346.869 203.543 347.839 203.058 348.567 203.543C349.294 203.786 349.779 204.756 349.294 205.484C347.354 209.849 344.443 212.76 340.805 214.215C339.349 214.943 337.409 215.185 335.468 215.185Z" fill="#07003A"/>
<path d="M348.324 138.06C347.839 138.06 347.354 137.818 347.111 137.332C346.626 136.605 346.869 135.635 347.597 135.15C350.507 133.209 353.418 131.754 356.814 131.027C364.091 129.329 370.882 130.784 375.249 132.482C376.947 133.209 378.644 133.937 380.1 134.665C380.828 135.15 381.07 136.12 380.828 136.847C380.342 137.575 379.372 137.818 378.644 137.575C377.189 136.847 375.734 136.12 374.036 135.635C369.912 134.18 363.848 132.724 357.299 134.18C354.388 134.907 351.72 136.12 349.294 137.818C348.809 138.06 348.567 138.06 348.324 138.06Z" fill="#07003A"/>
<path d="M310.242 135.634C309.999 135.634 309.756 135.634 309.514 135.391C309.514 135.391 307.573 134.421 304.663 133.451C301.752 132.481 297.386 131.511 292.777 131.753C290.352 131.996 287.926 132.238 285.743 133.208C285.015 133.451 284.045 132.966 283.802 132.238C283.56 131.511 284.045 130.541 284.773 130.298C287.198 129.328 289.866 128.843 292.777 128.843C298.114 128.6 302.722 129.813 305.876 130.783C309.271 131.753 311.212 132.966 311.212 132.966C311.94 133.451 312.182 134.421 311.697 135.149C311.454 135.149 310.727 135.634 310.242 135.634Z" fill="#07003A"/>
<path d="M626.179 555.845C612.424 565.603 597.969 574.328 583.013 581.874C532.215 607.492 476.77 626.319 420.132 635.574L400.959 530.967C400.474 528.784 401.93 526.601 404.356 526.116L614.899 489.251L626.179 555.845Z" fill="#D84A48"/>
<path d="M618.538 481.974C620.721 481.489 622.904 483.187 623.39 485.369L633.59 550.436C617.649 562.402 600.681 572.961 583.014 581.874C537.033 605.063 487.244 622.688 436.21 632.686L418.667 520.779C418.425 518.597 419.88 516.415 422.062 516.172L618.538 481.974Z" fill="#D84A48"/>
<path d="M562.991 462.571L578.74 584.006C550.755 597.839 521.403 609.609 491.253 618.857L472.758 458.933L562.991 462.571Z" fill="#D378A8"/>
<path d="M474.698 482.217C475.668 482.217 476.396 482.702 476.396 483.672L492.335 618.522C491.312 618.838 490.288 619.152 489.263 619.463L473.243 483.914C473.243 483.186 473.728 482.217 474.698 482.217Z" fill="#F6D16E"/>
<path d="M436.13 632.702C432.228 633.466 428.318 634.184 424.402 634.858L406.78 531.208L418.666 521.022L436.13 632.702Z" fill="white"/>
</svg>
